<svg width="118" height="114" viewBox="0 0 118 114" fill="none" xmlns="http://www.w3.org/2000/svg">
<g clip-path="url(#clip0_71_746)">
<path d="M95.5879 40.6612L96.2724 40.3277L96.0825 39.8343L96.3516 39.6061L96.2091 39.4911L96.4723 38.5218L96.9372 38.2585L97.5664 37.1937L97.4239 36.7607L98.5714 34.7598L98.4132 34.4029L97.8948 34.4809L97.5585 34.2488L97.8236 33.9426L97.6317 33.6911L97.8968 32.7647L97.6712 32.4098L98.0353 32.48L97.4694 32.1562L98.2925 32.1172L98.7297 31.8149L99.438 30.5005L99.1175 30.4712L98.9276 30.1085L99.5211 29.188L98.981 28.6907L99.07 28.5151L98.1936 28.2323L97.972 28.7628L97.5763 28.9773L97.6653 28.6477L97.3606 28.5931L97.3527 28.2479L97.7148 28.0217L97.3487 28.0646L97.3329 27.8735L96.5613 27.6414L96.4723 27.1519L96.7572 27.1539L96.8541 26.8087L97.1984 26.8711L97.4872 25.5274L97.7405 25.3792L97.972 26.2587L99.353 26.6527L99.3252 26.8769L99.6141 27.0271L100.651 26.719L101.347 27.1617L101.69 26.8594L102.168 25.6717L102.952 25.6346L102.976 25.7946L103.458 25.5196L104.052 25.9174L104.606 25.6171L105.914 26.4537L107.059 26.7482L106.375 27.5049L105.886 28.757L104.92 29.3108L104.855 29.7418L103.83 30.7306L103.51 31.4268L103.559 32.2732L103.251 32.5716L102.956 33.7379L103.057 34.555L102.633 34.8631L102.414 35.8344L101.678 37.0591L101.618 38.1044L102.052 38.8553L101.511 39.9747L101.29 41.1761L101.44 41.7221L101.141 42.159L101.796 43.2726L101.729 43.6158L101.037 44.0488L101.296 44.1872L101.025 44.275L101.136 44.5422L100.95 44.7294L100.481 44.5753L100.394 44.7528L100.679 44.864L100.111 45.3281L99.6359 45.2189L98.9355 45.4568L98.8445 45.2423L98.334 45.1877L98.5952 44.589L98.0254 44.4817L98.1124 44.2223L97.6435 43.4071L96.9807 43.296L97.3131 42.4632L97.236 41.8508L96.4426 41.2736L95.8352 41.1351L95.5879 40.6612Z" fill="#D7DBCB"/>
<path d="M44.6159 65.55L44.8078 65.8016L45.3638 65.7178L45.807 66.0435L45.615 66.6168L46.1116 67.1102L46.5786 66.5583L46.812 66.808L47.8052 66.6968L48.3572 67.6153L48.6085 67.4223L49.024 67.6758L48.65 68.2511L50.0686 68.7387L49.7639 69.0956L50.3219 69.3628L49.8352 70.0044L49.6017 70.0161L49.5245 70.5836L49.94 70.7923L49.5285 71.3637L50.031 71.5431L49.7936 71.8006L49.7521 71.8045L50.1873 72.1789L51.0381 72.2725L50.7591 72.4987L51.3348 73.4758L51.0242 73.6513L51.0579 73.7859L51.2893 74.6616L51.0519 74.7298L51.2814 75.0926L50.6384 75.4982L50.6721 75.8687L50.1161 76.0404L50.2605 76.6742L49.5067 77.3139L48.8875 77.4699L48.9369 77.8209L48.4522 78.3358L48.5313 78.564L47.8013 78.9755L47.5243 78.8955L47.8151 79.3168L47.8191 80.0091L48.1297 80.2119L48.1772 80.9004L47.277 80.9452L47.1899 81.1305L47.0178 80.6917L46.8199 80.7248L46.5984 81.5244L47.2671 81.9262L46.905 82.8662L46.4678 82.9403L46.7309 83.0417L46.8021 83.4591L46.539 83.5858L45.9395 83.3947L46.0127 83.7594L45.6724 83.8004L45.528 84.3133L44.9008 84.7326L44.3191 84.1046L44.0144 84.3874L43.2349 84.3776L43.0806 84.6838L42.03 84.9042L41.9133 85.1148L41.3415 84.7638L41.019 84.8418L40.7302 85.3157L40.4868 84.9919L39.9012 85.4444L40.0693 85.9456L39.9289 86.1757L39.272 85.8071L39.4995 85.5283L39.1454 85.1889L38.6567 85.8149L37.9702 85.694L37.4775 86.1601L37.9148 86.4878L37.7328 86.6067L37.8574 87.1411L37.5863 87.1606L37.8475 87.9524L37.3944 88.2878L37.4577 88.8729L37.1313 89.0036L37.1491 89.2786L37.4142 89.3078L37.4854 89.6764L37.99 89.5243L38.6528 89.6842L38.6765 90.1133L38.9001 90.0606L39.2938 90.9051L38.904 91.0045L38.8921 91.5837L39.4382 91.2015L39.4145 92.0128L39.6875 92.3014L39.0643 92.7987L39.3017 93.142L39.0386 93.7173L38.8427 93.6705L38.8862 94.1795L38.4786 94.1464L38.2432 94.7119L37.8574 94.8738L37.9642 95.5622L37.3014 95.7241L37.0779 96.0751L37.1333 96.8611L36.7534 97.0444L36.8701 97.7913L36.2014 98.3472L35.8057 98.3862L35.2834 98.0351L34.9075 98.5792L33.8688 97.4013L33.4276 97.2706L33.2455 96.4827L31.6905 96.6446L30.2857 95.8645L30.0562 96.042L29.8801 95.7416L29.3459 95.5213L29.069 95.65L28.6871 95.375L29.0017 94.8231L28.4002 95.0864L28.3211 95.8158L27.6148 95.6207L27.3437 95.1566L27.8265 94.7217L28.0936 94.041L28.0401 93.2805L26.8372 92.8826L26.6097 92.945L26.4989 93.3721L26.2358 93.3468L26.1052 92.7363L25.2426 92.8533L25.1753 92.475L24.7697 92.2488L24.7559 91.9894L25.751 91.8236L26.303 91.3263L27.5653 88.9392L28.794 82.6361L29.1224 78.8838L29.6407 77.583L31.1978 77.8424L31.085 77.3568L30.6616 77.1598L30.9545 77.1559L29.8584 76.2549L29.3222 77.193L29.2055 78.0803L29.0808 77.8775L29.9395 68.2453L30.4519 67.315L30.7269 67.1161L30.901 67.5471L30.5845 67.6017L30.7922 67.6153L30.6814 67.8299L32.836 69.7333L33.7738 72.8381L34.5553 73.5889L33.9519 72.2101L33.568 69.9459L34.5513 70.0278L34.6186 69.7314L34.8026 70.3067L35.9521 70.5134L36.1421 71.5685L36.1519 71.6192L36.2983 72.058L36.4665 71.7557L36.6743 71.7947L36.8701 72.1204L37.1491 72.0658L37.3252 72.3837L37.8831 72.6177L38.2709 72.6723L38.7279 72.3057L39.088 72.569L39.1474 72.095L39.4837 71.9488L39.2938 71.8123L39.5173 71.3793L39.9091 71.0985L40.558 71.3383L40.8904 70.7104L41.6363 70.293L41.482 69.4622L41.7174 68.7972L42.0538 68.686L41.9331 68.4266L42.1646 68.6256L42.5761 68.1224L42.9955 68.1205L43.138 67.6856L43.593 67.3657L43.6464 66.4296L44.0936 66.4238L44.6159 65.55ZM38.8209 92.7402L38.7734 92.044L38.6963 92.0069L38.7279 92.4262L38.4885 92.5218L38.6864 92.709L38.8209 92.7402ZM38.5063 92.7149L38.449 92.7578L38.2887 93.1342L38.443 93.4755L38.7853 93.2336L38.5815 92.7422L38.534 92.711L38.5063 92.7149Z" fill="#D7DBCB"/>
<path d="M58.1705 57.2928L58.3169 56.7019L58.5207 56.6999L58.8294 56.1597L59.8661 55.9725L60.2736 56.1304L60.9147 55.7287L60.8256 55.245L60.519 55.0773L60.7604 54.7185L60.5487 54.4864L60.8355 54.3401L61.0235 54.4903L60.9938 54.1178L61.6289 53.7843L61.7456 53.4703L62.1176 53.8038L62.4262 53.5932L62.818 53.7005L63.4293 52.9087L64.3375 52.8853L64.5571 53.4001L65.7204 54.2797L66.2902 53.8019L66.9293 54.19L67.1944 53.8526L67.5347 53.837L67.8315 54.5722L68.6862 54.1315L68.5774 53.7336L68.9829 53.7161L68.9157 53.2753L69.2144 53.3572L69.3252 53.9208L70.1324 55.1553L70.1779 55.9003L70.7003 56.1343L70.9753 55.9861L71.2226 56.4932L71.8874 56.4366L72.2949 56.8013L72.101 57.5424L72.1723 58.3576L72.3345 58.3732L71.8577 58.4415L71.4679 58.9758L71.4145 58.9895L71.3433 58.9992L70.3896 59.4049L70.724 60.2942L70.5954 60.889L70.8289 61.1601L70.6963 61.5697L70.908 62.1996L70.5519 62.4999L69.8436 62.5428L69.7783 63.0011L70.2848 63.5121L69.9643 63.6954L70.0217 64.3507L69.7466 64.6101L70.5004 65.3746L70.4708 65.7627L70.8546 66.453L71.7588 67.0693L72.1782 68.0171L72.0021 68.7056L71.3927 69.1756L71.5174 69.8757L71.8755 69.394L72.1841 69.4408L72.4512 69.9459L72.471 69.7002L72.8865 69.8543L72.9696 69.5968L73.5651 69.5208L73.4919 69.3023L73.7689 69.2009L74.216 69.2419L74.5366 69.5988L75.049 69.4818L75.3181 69.8484L75.0233 70.061L75.3458 70.2482L75.1677 70.5563L75.4664 70.7689L75.878 70.5563L76.3271 71.1512L75.9729 71.8649L76.0541 72.3428L75.876 72.4461L75.7711 72.1438L75.3675 72.058L75.5733 72.3993V72.5027L75.3477 72.4871L75.1459 72.8284L75.417 73.2847L74.7324 73.4817L74.8749 74.0102L74.1448 74.1233L73.5829 75.1511L72.5818 75.1589L72.5304 75.5996L72.2989 75.7557L72.1545 75.6075L72.2019 75.8512L71.8814 75.6757L71.6697 76.3388L71.1593 76.6157L70.9476 76.5748L71.0069 76.2978L70.7319 76.3836L70.3343 75.9721L70.1878 75.547L69.5567 75.6543L69.6121 75.3364L69.256 75.0555L68.9572 75.1179L68.9157 75.6835L68.0075 75.8727L67.505 74.8605L67.4912 74.3652L67.1291 73.9849L66.4267 74.5348L66.0667 74.4354L66.0192 74.9814L65.6571 75.2681L65.1605 74.8001L64.9785 75.2311H64.931L64.8934 75.5958L64.6758 75.5509L64.4601 75.978L64.4028 76.9375L63.9319 77.7469L63.5619 77.3432L63.3561 76.4188L63.5659 76.2744L63.4293 76.0521L63.1642 76.1009L62.9288 75.1335L62.2165 75.3442L62.2284 74.7045L61.9217 74.371L60.8355 75.4592L60.7999 76.0716L60.3844 76.5104L60.4695 76.8888L59.9709 77.2417L59.8423 77.6766L58.7621 77.7917L58.5504 77.4524L58.2912 77.4758L57.6482 77.6825L57.5453 78.0491L57.2683 77.8132L57.1714 77.1657L56.932 77.154L57.2762 76.1106L56.6154 75.1452L56.7124 74.6109L56.3721 73.981L56.6985 73.8971L56.7678 73.9146L57.0408 73.6904L56.6768 73.0214L57.2881 72.7679L57.3415 72.1399L57.7748 71.8142L57.5156 71.6329L57.4602 71.1707L58.8214 69.8484L58.7304 68.9845L59.8146 69.4662L60.2064 69.2126L59.872 68.9006L60.1213 67.3443L59.6583 66.8626L59.8621 66.3458L60.1549 66.3302L60.1708 65.5442L59.0589 64.2122L59.6188 63.7383L59.6544 63.7305L59.9155 63.7656L60.4418 63.1884L60.5051 62.6891L60.8929 62.5116L60.8118 61.7803L60.3884 61.1855L60.517 60.38L59.8305 58.9251L59.413 58.7379L59.3299 58.89L59.0529 58.3245L58.865 58.5721L58.3506 58.1879L58.6097 57.8486L58.2279 57.7413L58.1705 57.2928Z" fill="#D7DBCB"/>
<path d="M80.0231 40.1191L79.7164 39.4619L79.4394 39.5028L79.3662 39.7603L79.1288 39.6101L79.4058 39.2298L79.2436 38.986L78.743 38.9646L78.9448 38.6486L78.8123 38.44L78.0486 38.2235L77.0514 38.1611L76.7012 38.4341L76.8536 38.8983L74.881 38.9802L74.7029 39.419L74.3073 39.3566L74.1569 38.8515L73.8977 38.908L73.959 39.22L73.6702 39.0016L73.5673 39.0562L73.2013 39.4073L72.7898 39.1693L72.6631 39.417L72.3327 39.2083L71.4325 39.3683L71.5849 38.7598L71.4305 38.4965L71.3118 38.7715L71.0784 38.7208L70.9755 38.4692L71.2446 38.3346L70.837 37.9836L70.5818 37.0923L70.1584 36.9149L70.2296 36.5112L69.9506 36.4098L70.0199 36.6282L69.5628 36.8232L69.2601 36.2186L68.8367 36.283L69.1849 35.7857L69.0148 35.7018L69.1652 35.263L68.8229 35.0777L68.904 34.8769L68.2175 34.0753L67.9108 33.9564L67.5962 34.1709L67.4815 33.7867L67.1649 33.6677L67.0739 34.0032L66.8365 34.0344L65.2339 33.9993L64.9292 34.2879L64.4682 34.1611L64.2051 34.8203L64.4682 35.4912L64.1161 36.01L63.566 36.2947L63.5641 36.5404L64.3238 36.9012L64.213 37.1099L64.3752 37.0982L64.49 37.6267L65.1053 38.1513L64.8976 38.2761L65.133 38.8398L64.86 39.1537L64.8105 39.1947L64.1576 39.6432L64.0468 40.1113L64.3495 40.3219L64.2902 41.0786L62.8637 41.4336L62.832 41.9192L63.0833 41.8782L63.475 42.3404L63.6986 42.7812L63.5601 43.335L63.8885 43.688L62.9369 43.9552V43.9123L62.834 44.0625L63.5126 45.256L62.9943 46.4437L63.9301 47.3564L64.3317 49.0258L64.2269 49.7006L64.7195 50.1804L64.7334 50.9858L64.486 51.5553L64.6483 52.2145L64.3377 52.8853L64.5573 53.4002L65.7206 54.2798L66.2904 53.802L66.9295 54.1901L67.1946 53.8527L67.5349 53.8371L67.8317 54.5723L68.6864 54.1315L68.5776 53.7337L68.9831 53.7161L68.9159 53.2754L69.2146 53.3573L69.3254 53.9209L70.1326 55.1554L70.1781 55.9004L70.7005 56.1344L70.9755 55.9862L71.2228 56.4933L71.8876 56.4367L72.2951 56.8014L72.1012 57.5425L72.1725 58.3577L72.3347 58.3733L71.8579 58.4416L71.4681 58.9759L71.3969 59.6936L72.0735 59.8301L72.2101 60.2202L73.1419 59.875L73.7612 60.1656L74.0026 59.9257L74.1509 60.1207L74.3864 60.0057L74.3488 60.345L74.5585 60.3703L75.3578 60.0252L75.6289 58.7439L76.0641 58.7283L76.4361 59.0734L76.9663 58.7653L77.3759 59.0968L77.5322 58.6834L77.8824 58.6229L78.1336 58.9447L77.8784 59.1749L78.3434 59.4732L78.2068 59.9237L78.5254 60.1851L78.7034 60.1383L80.0271 56.1364L80.1062 56.3451L80.3812 56.1812L80.9787 56.5401L81.8809 56.308L81.8908 56.1305L82.2034 56.2885L82.4467 56.8463L83.0917 56.9828L83.1689 56.7858L83.9346 56.6239L83.9662 56.3256L83.4597 56.1227L83.4498 55.6235L83.8277 55.3953L83.7585 55.0579L84.1324 54.7381L83.7525 54.1823L83.7308 53.6713L83.4676 53.6557L83.7189 53.1779L83.1946 52.6474L84.3322 52.351L83.8139 52.0214L83.7862 51.7386L83.2124 51.7971L82.9236 51.1808L82.6782 51.3096L82.5991 50.7245L83.1234 50.313L82.7712 50.1492L82.8405 49.8839L83.6714 49.4919L84.1166 48.7528L84.1126 48.6923L84.5162 47.0444L84.7734 46.8708L84.3916 46.7128H84.3639L84.5795 46.4203L84.4846 45.7982L84.4529 45.7787L84.1126 45.8021H84.0612L84.1146 45.1117L83.525 44.944L83.8633 44.7919L83.6952 44.7451L83.7901 44.5325L84.1957 44.5481L84.5954 43.8577L84.1364 42.9645L83.7545 43.3877L83.5705 43.2629L83.43 43.4306L83.0324 43.2102L82.5813 43.6022L82.6446 43.0581L81.9402 42.6993L81.9818 42.3619L81.4812 42.7675L80.9569 42.5062L81.0163 42.1825L80.7551 42.2176L80.7492 41.9991L80.2546 42.2917L80.1754 41.379L79.8193 41.3165L80.4485 40.8251L80.1319 40.1191H80.0231Z" fill="#D7DBCB"/>
<path d="M12.7645 45.8626L13.0098 46.1532L13.5084 46.1415L13.6528 46.5569L14.2938 46.7363L14.183 47.0679L12.8416 46.8728L12.6378 46.2839L12.7645 45.8626ZM12.9544 27.9556L12.9959 28.3905L14.098 27.9497V28.5426L14.7034 28.5055L14.7667 28.7922L14.4422 29.0321L15.386 29.3324L15.2494 29.7576L16.302 30.6391L16.2624 31.2924L17.1508 31.7741L16.9312 32.1544L17.1626 32.0589L17.4812 32.6049L17.4099 32.0589L17.863 32.1876L18.4605 31.2378L19.1253 30.9589L19.0026 30.6839L19.424 30.5903L19.5665 30.877L20.3994 30.1515L20.6863 30.3992L20.2471 30.9901L20.437 31.113L21.0167 30.6937L21.2858 31.3938L21.173 31.8443L21.4045 31.1032L21.543 31.5264L21.7784 31.0155L21.9921 31.2281L21.7666 30.8283L22.6252 30.7619L22.7123 31.2398L23.0407 31.4504L22.8923 31.583L23.2386 31.9223L23.1357 32.5152L23.3039 32.1408L23.5195 32.2129L23.1238 31.4348L23.4463 31.6044L23.3355 31.3451L22.9101 31.2573L23.0348 31.0506L22.742 30.8146L23.0842 30.2178L24.301 29.8648L24.3643 30.2666L24.0953 30.7717L24.8372 31.1871L26.5268 30.8166L27.2114 32.5893L27.7634 32.9326L28.3173 32.835L29.1404 31.9204L30.65 32.3553L30.559 33.4962L30.8538 34.5396L30.3948 35.3001L30.5788 36.0627L30.6124 36.0939L31.0892 38.4849L29.9516 38.9471L29.1997 41.2133L28.2422 40.9422L28.0384 40.5931L27.2945 40.5073L27.3419 40.8954L26.1173 41.3693L25.8066 42.0168L24.1625 42.0285L23.383 42.4751L23.2326 42.2059L22.3403 42.7325L22.2058 44.1328L21.7191 44.2673L21.6676 44.6476L21.4916 44.3746L20.9989 44.5911L20.5577 44.3317L20.4034 44.9909L19.7109 45.0474L19.5329 44.7997L19.2499 45.1449L18.9413 45.1215L18.8899 44.6184L19.3884 44.5443L18.8246 44.2342L16.3119 44.6886L15.5244 43.889L15.0991 43.887L14.8814 43.573L14.7568 43.731L14.5906 43.4229L14.6302 43.7213L13.7814 43.6959L13.7438 44.3629L14.1395 44.9012L13.7161 44.8485L13.4589 44.1776L13.6845 43.9923L13.5657 43.3839L12.4439 42.3073L11.8326 42.2995L11.7891 42.0012L11.0689 42.1806L10.4635 41.3654L9.21703 41.2172L8.81738 40.87L7.77274 41.0416L7.38495 40.5151L7.55313 40.2245L7.31571 40.3279L7.02289 39.6979L6.67072 39.9281L6.78943 40.2752L6.24139 40.4156L5.71313 40.0724L5.37877 40.2498L5.01077 40.9753L3.5645 40.9773L3.64166 39.8754L3.12527 38.9763L2.38928 38.4595L1.91048 38.5239L1.39014 38.1767L0.531477 38.0519L0.778788 37.9973L0.715477 37.7438L3.16286 37.2309L4.0789 37.4454L4.38953 36.9539L3.99185 36.0568L2.77706 35.6317L2.4882 35.7136L1.99556 36.4625L1.88674 35.6843L2.12416 35.5069L1.48115 35.4425L1.42575 35.1363L1.90653 35.1051L1.89268 34.5161L2.21517 34.3913L2.02326 34.8516L2.19143 35.0778L2.48622 34.7463L2.4605 35.1168L2.87796 34.9257L3.31719 35.1909L4.06505 34.9101L4.4469 35.1246L4.76742 34.717L4.55374 34.8925L3.81774 34.7014L4.10067 34.5122L3.86325 34.4011L3.97404 34.1261L3.52295 34.5649L3.16484 34.5844L3.32708 34.3699L2.82652 34.561L3.30334 33.8726L3.10945 33.7205L1.59986 34.4186L0.994443 34.2119L0.77681 34.5025L0.24064 34.5279L0.0962104 34.1398L0.33165 33.8843L0.0566406 33.5079L0.337586 32.8526L0.207006 32.2656L0.59281 31.7702L1.57414 31.5225L1.61173 31.1851L1.95797 31.2612L2.13405 30.7853L2.4882 30.9784L3.29147 30.7814L3.00063 30.5708L3.74454 30.2939L4.15606 30.448L4.15804 30.8263L4.98505 30.604L4.76148 30.5201L5.05825 30.1749L5.76853 30.0716L6.1029 30.3056L6.15236 29.9428L6.52629 29.6796L6.57773 29.8726L6.83098 29.6815L6.81713 30.3329L7.14754 30.4714L7.197 30.0306L7.21283 30.3329L7.84792 30.4987L7.77472 30.1437L7.96861 29.8375L8.05764 30.0053L8.0339 29.779L9.21308 30.1847L9.50787 30.0657L9.38718 30.5201L9.67802 30.1847L10.0163 30.3797L10.0025 29.7147L10.2894 29.4611L9.99458 29.3129L10.139 28.8468L9.97479 28.7122L10.2399 28.8897L10.6534 28.3046L10.7603 28.5367L10.8493 28.3261L11.0234 28.5952L11.2786 28.5309L11.1738 28.8098L11.5239 28.7844L12.165 28.3163L12.6319 28.3651L12.9544 27.9556Z" fill="#D7DBCB"/>
<path d="M51.7744 27.0681L52.2829 27.6824L52.1404 27.9301L52.5717 28.3085L52.4333 29.2699L52.8052 29.4455L52.3957 29.9837L52.6845 30.1553L52.6014 30.4459L53.1257 31.068L53.5274 31.0641L53.4779 31.5205L54.1189 31.8072L54.0259 32.2986L54.2376 32.8662L54.7975 33.186L55.2941 32.9832L55.2744 33.6034L55.6819 33.658L55.769 34.1202L55.5197 34.7637L55.6404 35.029L57.2093 34.9022L57.1124 34.6896L57.3557 34.7462L57.5338 34.3483L57.884 34.4966L57.88 34.9022L58.3193 34.7345L58.3628 34.6545L58.5586 34.4829L58.8158 34.7891L59.1878 34.6935L59.3481 35.3722L60.1157 35.7818L60.1197 36.4917L59.8367 36.5209L59.5123 37.0143L60.462 36.8076L61.6629 37.0202L62.0625 36.7549L61.9161 36.4956L62.1338 36.6574L62.4305 36.4722L62.5987 36.9422L62.9825 36.6243L63.5642 36.5404L64.324 36.9012L64.2132 37.1099L64.3754 37.0982L64.4901 37.6267L65.1055 38.1513L64.8977 38.2761L65.1332 38.8397L64.8601 39.1537L64.8107 39.1947L64.1578 39.6432L64.047 40.1113L64.3497 40.3219L64.2903 41.0786L62.8638 41.4336L62.8322 41.9192L63.0834 41.8782L63.4752 42.3404L63.6988 42.7812L63.5603 43.335L63.8887 43.688L62.937 43.9552V43.9123L62.8342 44.0625L63.5128 45.256L62.9944 46.4437L63.9302 47.3564L64.3319 49.0258L64.227 49.7006L64.7197 50.1804L64.7335 50.9858L64.4862 51.5553L64.6484 52.2144L64.3378 52.8853L63.4297 52.9087L62.8183 53.7005L62.4266 53.5933L62.1179 53.8039L61.746 53.4704L61.6293 53.7844L60.9942 54.1179L61.0238 54.4904L60.8359 54.3402L60.549 54.4865L60.7607 54.7186L60.5193 55.0774L60.826 55.2451L60.915 55.7288L60.274 56.1305L59.8664 55.9726L58.8297 56.1598L58.5211 56.7L58.3173 56.7019L58.1709 57.2929L57.4824 57.1915L56.594 57.4079L55.6938 57.0198L54.5463 57.2227L54.0853 56.8619L53.7944 56.936L53.8973 57.2266L53.6421 57.6381L53.286 57.3085L52.8171 57.6634L52.6608 57.2734L52.1305 57.6108L51.9742 57.211L51.0661 58.1549L50.5616 57.5269L50.2272 57.5834L50.1481 57.8584L49.4497 57.9247L49.3725 57.64L49.1173 57.7005L49.2677 57.5035L49.3943 57.129L48.8918 56.9555L48.8383 56.269L48.4169 55.9238L47.8155 55.9297L47.7719 55.5689L46.9192 55.1671L46.7708 54.8356L47.0597 54.075L46.939 53.6888L46.1377 52.9555L45.9834 52.2418L45.2296 51.6099L45.1247 50.7752L44.5173 50.3754L44.1078 50.3929L44.359 50.9722L43.5973 50.9526L43.0473 51.2998L42.4459 51.0638L42.1036 51.2861L41.8385 50.5763L42.0145 50.4826L41.9354 49.8566L41.6505 49.958L41.4606 49.6148L40.9125 49.763L41.0906 49.3769L40.9402 49.096L40.778 49.2637L40.5544 49.1896L40.5979 48.979L40.1053 49.0492L39.8896 48.5168L40.0776 47.1204L40.9402 45.9288L40.6988 45.7182L41.2627 44.5149L41.3003 44.1912L41.0372 44.0488L41.3636 43.3623L41.3537 43.2609L42.5982 43.6783L42.7565 43.5788L42.4399 43.0873L42.5942 42.8007L43.1363 43.0932L43.257 42.7851L44.3412 42.4613L44.5292 42.2078L44.3393 42.2644L44.2562 41.9114L44.5925 41.5038L45.2078 41.3224L45.1326 41.1274L45.7578 40.5403L45.6906 39.7173L45.93 39.5828L46.1061 39.8656L46.1397 39.339L46.4147 39.2434L46.1654 38.6896L46.3593 38.163L45.9893 38.0733L45.9596 37.6696L46.3652 37.6403L46.383 37.3732L46.1219 37.3166L46.3494 37.2639L46.4305 36.9071L46.9627 36.8407L45.9933 36.1699L46.2604 35.9358L45.9141 35.3625L46.0625 35.0212L45.6451 34.8925L45.7658 34.6155L46.9489 34.0032L47.4574 33.1802L47.1289 32.7394L47.3802 32.166L46.1694 31.0876L46.1417 30.3796L46.5374 30.1631L46.6422 29.8238L47.5662 29.7029H47.7363L48.1775 29.2992L48.6049 29.4435L48.6563 28.9189L49.4853 29.3031L50.3875 29.2641L50.7159 29.0203L50.6309 28.367L51.4381 27.9067L51.3372 27.2729L51.7744 27.0681Z" fill="#D7DBCB"/>
<path d="M79.1559 11.9597L79.6545 12.1801L79.419 12.3946L79.4547 12.7944L79.2825 12.6228L79.0273 13.083L79.2014 13.4224L78.778 14.2922L79.5892 15.0352L79.2509 15.5715L79.4784 16.1605L79.2885 16.494L80.4696 16.4062L81.2828 16.8723L81.8744 17.7402L82.731 17.709L83.2336 18.2316L83.0891 18.7641L83.3681 18.5183L83.7618 18.6978L82.6657 19.628L82.4402 19.2848L81.8546 19.3647L81.6884 19.0195L81.4351 19L81.2511 19.6202L81.2373 19.6943L80.9959 20.139L81.4233 20.6694L81.4569 21.1473L81.1423 21.3559L81.3402 21.6582L80.9524 21.7928L80.715 22.5046L80.9722 22.7035L80.9247 22.9473L80.1076 23.4056L80.4439 23.7528L80.0106 24.0512L80.5448 25.4846L80.2243 26.0657L80.5804 25.8922L80.8079 26.0404L80.7901 26.4148L80.4637 26.5299L80.8337 26.6528L80.6437 27.0779L80.0027 27.3392L79.9671 27.3744L79.791 27.9497L79.9968 28.2656L79.6129 28.8039L80.5943 29.4982L80.5052 31.0447L80.984 30.838L81.0988 31.2826L81.4925 31.2885L82.2542 32.1076L83.2078 32.3357L84.3613 33.3869L83.7401 33.775L84.1377 33.9193L84.0131 34.5025L84.4444 34.2002L84.8164 34.3016L85.3446 35.1987L85.5306 34.9822L85.8768 35.2728L85.7759 35.5907L86.1538 35.6843L86.502 36.1231L86.0984 36.3493L86.0173 37.2094L85.6671 37.4863L86.231 37.5916L86.4407 37.9875L86.8898 38.1123L86.9788 39.0875L87.4675 38.8086L87.7782 39.4073L87.7742 39.7174L87.4972 39.6413L87.2618 40.0665L87.3112 40.2927L86.7592 40.205L86.6029 40.6789L86.1874 40.6691L86.0648 41.1703L86.3339 41.5584L86.1855 42.3034L85.4139 42.4536L85.1725 42.0304L84.8282 42.4438L83.8825 42.4263L83.5699 43.2629L83.4294 43.4306L83.0318 43.2103L82.5807 43.6023L82.644 43.0581L81.9396 42.6993L81.9812 42.3619L81.4806 42.7676L80.9563 42.5062L81.0157 42.1825L80.7545 42.2176L80.7486 41.9992L80.254 42.2917L80.1748 41.379L79.8187 41.3166L80.4479 40.8251L80.1313 40.1191H80.0225L79.7158 39.4619L79.4388 39.5029L79.3656 39.7603L79.1282 39.6101L79.4052 39.2298L79.243 38.9861L78.7424 38.9646L78.9442 38.6487L78.8117 38.44L78.048 38.2235L77.0508 38.1611L76.7006 38.4341L76.853 38.8983L74.8804 38.9802L74.7023 39.419L74.3066 39.3566L74.1563 38.8515L73.8971 38.908L73.9584 39.2201L73.6696 39.0017L73.5667 39.0563L73.2007 39.4073L72.7891 39.1694L72.6625 39.4171L72.3321 39.2084L71.4319 39.3683L71.5842 38.7598L71.4299 38.4965L71.3112 38.7715L71.0777 38.7208L70.9749 38.4692L71.2439 38.3347L70.8364 37.9836L70.5811 37.0924L70.1578 36.9149L70.229 36.5112L69.95 36.4098L70.0193 36.6282L69.5622 36.8232L69.2595 36.2187L68.8361 36.283L69.1843 35.7857L69.0142 35.7019L69.1645 35.2631L68.8223 35.0778L68.9034 34.8769L68.2169 34.0754L67.9102 33.9564L67.5956 34.1709L67.4809 33.7867L67.2217 32.6926L67.6688 32.562L67.4116 32.1056L68.023 31.9379L67.8904 31.5869L68.294 31.3509L68.1931 31.1695L68.6699 31.0252L68.3474 30.8263L68.4622 30.6624L67.7796 30.799L67.9201 29.543L67.3147 29.2953L67.7163 28.9053L67.3879 28.681L68.0764 28.6167L68.0606 28.1486L68.4127 27.4134L68.7609 27.3822L68.7886 27.0779L69.03 27.035L68.9232 26.8224L69.6433 26.1594L69.4218 25.8025L68.8836 25.8785L68.8975 25.5918L69.3189 25.3832L69.0122 24.8605L69.1883 24.4802L69.8689 24.5816L70.225 24.3768L70.231 24.1019L69.95 24.1545L69.8194 23.784L69.6829 23.9049L69.4495 23.7099L69.6493 23.4388L69.3782 22.4637L70.4684 21.9332L71.0718 22.0756L71.1074 21.6368L71.6673 21.3072L71.9621 21.6719L72.5952 21.8844L72.6071 20.9152L72.8584 20.8255L72.6348 20.0629L72.9474 19.8425L72.7041 19.589L72.9355 19.2614L72.4884 18.6275L72.6328 18.4306L73.2402 18.4891L73.3332 17.9274L73.816 17.6661L74.3482 16.9406L73.9881 16.6539L74.3759 15.5481L74.3957 15.1015L74.0831 14.9787L74.2018 14.4131L74.8408 14.2824L75.9607 14.6803L77.2051 14.062L77.9827 13.9509L77.8778 13.0635L78.0598 12.7008L79.0629 11.7783L79.1559 11.9597Z" fill="#D7DBCB"/>
<path d="M111.518 111.486L111.757 110.963L112.317 110.907L112.671 110.466L111.819 110.179L111.567 110.335L111.512 109.889L110.954 110.101L110.934 109.91L110.558 109.896L111.148 109.506L110.996 109.227L111.486 109.126L111.583 108.9L111.314 108.763L111.623 108.705L111.542 108.354L111.744 108.217L111.292 107.806L111.053 108.079L110.139 108.233L110.266 107.786L110.014 107.459L110.473 107.422L110.57 106.946L111.287 106.542L110.897 105.861L110.562 105.99L110.175 105.618L109.917 105.69L109.953 105.434L109.725 105.499L110.02 105.253L109.753 105.218L109.917 104.845L109.581 104.498L110.853 104.178L110.57 103.788L110.111 103.753L110.198 103.271L109.688 103.445L109.621 102.995L110.149 102.872L110.121 102.546L110.529 102.558L110.473 102.261L110.733 101.971L110.477 101.865L110.624 101.46L111.065 101.354L110.95 100.871L111.11 100.705L111.124 100.96L111.352 100.849L111.629 101.044L111.738 100.51L112.27 100.446L112.806 100.026L113.487 100.085L113.859 99.8644L113.837 99.4783L114.387 99.0921L115.184 99.0512L115.815 99.6947L116.193 99.0434L116.173 98.3959L115.902 97.9766L116.156 97.6177L116.005 97.2413L116.328 96.9761L116.154 96.2058L116.836 96.0146L117.169 96.2896L117.41 98.2672L117.024 99.7142L117.736 101.107L117.95 104.958L117.873 105.959L116.745 107.587L116.537 110.914L116.175 111.059L116.278 111.225L115.896 111.098L115.655 111.445L115.728 111.675L115.979 111.351L116.399 111.466L116.187 111.847L115.615 112.155L115.655 112.869L115.2 113.103L115.085 113.417L115.548 113.257L115.499 113.415L115.182 113.924L114.844 113.949L114.656 113.647L114.134 113.627L114.357 113.159L113.942 113.089L114.019 112.693L113.69 112.956L113.354 112.598L113.229 112.771L112.711 112.607L112.349 112.229L112.074 112.299L112.165 111.985L111.619 111.89L111.759 111.683L111.518 111.486Z" fill="#D7DBCB"/>
<path d="M87.7783 39.4073L88.176 38.7871L88.3996 38.8983L88.1344 39.261L88.3125 39.2883L88.7498 39.0406L89.0544 38.4731L89.8379 38.282L89.8577 38.2956L89.9487 38.9197L90.4038 39.2727V39.3351L91.9232 38.9899L92.3011 39.2181L92.6533 39.8948L93.6801 39.1674L94.0323 39.6745L95.5874 40.6613L95.8347 41.1352L96.4421 41.2736L97.2355 41.8509L97.3126 42.4633L96.9803 43.296L97.643 43.4072L98.1119 44.2224L98.0249 44.4818L96.7963 44.589L96.9506 45.0727L96.4441 45.3204L95.9415 46.276L97.0693 46.0361L97.3364 46.1629L97.3918 46.5022L97.0198 46.6114L96.907 46.9683L96.4678 47.058L96.5687 47.5885L95.6329 48.431L95.7773 48.5149L95.6131 48.7021L94.4953 49.4958L94.6298 49.8644L93.8246 50.5509L92.8017 50.7713L92.2675 51.3174L92.5326 51.7796L92.2596 52.6845L92.4357 53.1233L89.6282 55.4558L90.0081 55.8244L89.3176 56.7917L89.2523 57.3377L87.6497 59.1066L86.4646 59.1515L86.3696 58.5859L85.8176 58.4123L85.788 58.1724L84.9333 59.0617L84.3971 59.1105L84.4109 58.5118L84.0963 58.5137L83.9915 58.1334L83.8233 58.5703L83.4751 57.8721L83.6037 57.7317L82.9647 57.3709L83.0913 56.9828L83.1684 56.7858L83.9341 56.6239L83.9658 56.3256L83.4593 56.1227L83.4494 55.6235L83.8273 55.3953L83.758 55.0579L84.132 54.7381L83.7521 54.1823L83.7303 53.6713L83.4672 53.6557L83.7185 53.1779L83.1942 52.6474L84.3318 52.351L83.8134 52.0214L83.7857 51.7386L83.212 51.7971L82.9231 51.1808L82.6778 51.3096L82.5986 50.7245L83.1229 50.313L82.7708 50.1492L82.84 49.8839L83.671 49.4919L84.1161 48.7528L84.1122 48.6923L84.5158 47.0444L84.773 46.8708L84.3911 46.7129H84.3634L84.5791 46.4203L84.4841 45.7982L84.4525 45.7787L84.1122 45.8021H84.0607L84.1142 45.1117L83.5246 44.944L83.8629 44.7919L83.6947 44.7451L83.7897 44.5325L84.1953 44.5481L84.5949 43.8577L84.1359 42.9645L83.7541 43.3877L83.5701 43.2629L83.8827 42.4262L84.8284 42.4438L85.1726 42.0303L85.414 42.4535L86.1856 42.3034L86.334 41.5584L86.0649 41.1703L86.1876 40.6691L86.6031 40.6788L86.7594 40.2049L87.3114 40.2927L87.2619 40.0664L87.4974 39.6413L87.7744 39.7174L87.7783 39.4073Z" fill="#D7DBCB"/>
<path d="M53.4341 23.4817L53.7309 23.5753L53.628 23.938L53.7032 23.9361L53.8515 24.176L54.2532 24.0551L54.9081 24.3339L55.8835 24.1721L56.5324 23.7469L57.2684 24.3242L57.6621 24.1292L57.7808 24.4763L58.2121 24.371L58.4436 24.0414L58.8037 24.5153L58.9462 24.371L59.4803 24.5329L59.4329 24.6928L59.6446 24.6011L60.0046 24.8859L59.8938 25.0263L60.2381 25.1062L60.4043 24.802L60.6595 25.352L61.0651 24.999L61.8961 25.584L62.5054 25.1413L62.8636 25.467L63.8251 25.2057L63.9794 25.4573L64.1555 25.2057L64.6284 25.2837L64.6561 24.8917L65.218 25.0263L65.6453 25.7167L65.4534 26.1828L66.1419 26.6723L66.2507 27.0857L66.5811 26.9648L66.779 27.4641L67.0955 27.2144L67.2222 27.9068L67.7366 28.0491L67.8632 28.328L68.061 28.1486L68.0769 28.6167L67.3884 28.681L67.7168 28.9053L67.3151 29.2953L67.9206 29.543L67.7801 30.799L68.4627 30.6625L68.3479 30.8263L68.6704 31.0252L68.1936 31.1695L68.2945 31.3509L67.8909 31.5869L68.0234 31.9379L67.4121 32.1056L67.6693 32.562L67.2222 32.6927L67.4813 33.7867L67.1648 33.6678L67.0738 34.0032L66.8364 34.0344L65.2338 33.9993L64.9291 34.2879L64.4681 34.1612L64.205 34.8204L64.4681 35.4912L64.1159 36.01L63.5659 36.2947L63.5639 36.5405L62.9823 36.6243L62.5984 36.9422L62.4303 36.4722L62.1335 36.6575L61.9159 36.4956L62.0623 36.755L61.6626 37.0202L60.4617 36.8077L59.512 37.0144L59.8365 36.521L60.1194 36.4917L60.1154 35.7818L59.3478 35.3723L59.1875 34.6936L58.8156 34.7892L58.5584 34.483L58.3625 34.6546L58.319 34.7345L57.8798 34.9023L57.8837 34.4966L57.5335 34.3484L57.3554 34.7462L57.1121 34.6897L57.209 34.9023L55.6401 35.029L55.5194 34.7638L55.7687 34.1202L55.6816 33.658L55.2741 33.6034L55.2939 32.9832L54.7973 33.1861L54.2374 32.8662L54.0257 32.2987L54.1186 31.8072L53.4776 31.5206L53.5271 31.0642L53.1254 31.0681L52.6011 30.446L52.6842 30.1554L52.3954 29.9838L52.8049 29.4455L52.433 29.27L52.5715 28.3085L52.1402 27.9302L52.2826 27.6825L51.7741 27.0682L51.7029 26.7386L51.9205 26.5982L51.5209 26.6313L51.5882 26.1613L51.3389 25.6757L51.6693 25.7108L51.8434 25.2818L51.9324 25.4807H51.9759L52.7673 25.2818L53.4341 23.4817Z" fill="#D7DBCB"/>
<path d="M63.9321 77.7469L64.4029 76.9395L64.4603 75.98L64.676 75.5529L64.8936 75.5977L64.9312 75.233H64.9787L65.1607 74.802L65.6553 75.2701L66.0194 74.9834L66.0668 74.4393L66.4269 74.5387L67.1273 73.9888L67.4894 74.3691L67.5032 74.8664L68.0058 75.8766L68.9139 75.6894L68.9535 75.1238L69.2522 75.0614L69.6083 75.3422L69.5549 75.6582L70.1861 75.5529L70.3305 75.978L70.7282 76.3895L71.0032 76.3037L70.9438 76.5806L71.1555 76.6216L71.4978 78.3202L71.9054 78.5874L72.1982 79.703L72.861 80.4577L72.6275 80.6157L72.6908 81.4309L73.3635 81.2319L74.4101 82.0393L74.978 81.2124L75.5181 81.1208L75.5478 81.7527L75.896 81.8346L76.0206 81.2124L76.448 81.152L77.6311 81.9769L77.825 82.5971L78.1059 82.6108L78.2227 82.913L78.2148 84.1027L78.7569 84.2802L79.2337 85.1402L78.9824 85.1519L78.9844 85.4328L77.5678 86.5132L77.7795 86.757L77.3304 88.089L77.455 88.5356L76.7329 88.2937L76.2838 88.4049L75.7951 89.2221L76.171 89.3508L76.0859 89.6082L75.0334 90.2089L74.8691 89.9924L74.9503 90.2947L74.2776 90.6165L74.1905 91.0553L73.407 90.7686L73.2765 90.5092L73.4407 90.2576L73.1775 90.0256L72.0696 90.1075L70.0357 91.7223L69.3729 91.9114L68.2452 93.1986L68.2847 93.0055L68.2313 93.1849L66.8167 92.9568L66.8899 93.1908L65.5703 94.2478L64.763 95.533L64.4524 96.5413L64.5909 97.0542L64.3297 99.4081L64.4801 101.202L65.2497 101.466L65.1587 101.834L65.5208 102.353L64.7947 102.454L64.4208 101.934L63.8153 102.018L63.6511 101.834L63.4097 102.117L62.7667 102.09L62.2642 102.603L61.8962 102.47L61.4135 102.683L61.2255 102.883L61.3897 103.385L60.6082 103.192L60.2264 103.47L59.8307 103.391L59.427 102.809L57.9808 102.322L57.5257 102.566L57.1478 102.48L56.5721 103.149L56.0062 103.303L55.571 102.93L55.3296 102.158L54.8904 102.199L54.4155 101.784L53.64 101.696L53.7171 101.031L54.1128 100.828L54.7915 100.76L55.0506 100.375L55.6501 100.356L55.8499 99.8703L57.2131 99.8489L57.32 99.6519L56.5662 98.8796L55.9034 99.0766L55.1575 98.8075L55.2604 98.6144L54.7103 98.0898L54.8429 97.7699L55.757 97.571L55.7055 96.9196L55.3276 96.7792L55.5215 96.5374L55.9231 96.5549L55.6185 96.0498L55.749 95.7787L55.389 95.5798L55.567 95.3868L55.476 94.8992L55.1713 94.673L54.9636 94.8699L54.645 94.3804L54.6431 94.5345L54.0911 94.4721L53.4698 94.0411L53.6004 93.6666L53.3096 93.1284L53.6914 92.6759L53.5806 92.3717L54.3305 92.3756L54.2315 91.8061L54.647 91.2503L54.9952 91.7671L55.1852 91.4902L55.2327 91.4941L55.7668 91.6247L56.1665 91.3244L56.4554 91.7671L57.2586 91.537L57.6227 91.8997L57.6781 91.3693L57.9788 91.0553L59.1144 91.5389L59.4053 91.3225L60.8476 91.3751L61.3442 90.9402L61.3956 90.4293L60.9129 89.8656L61.1602 88.8223L61.7716 88.9919L62.0604 89.3332L63.3009 88.8808L63.4335 88.4907L63.9479 88.2781L64.5711 88.4576L64.5949 86.872L65.8255 87.106L66.1203 86.9286L66.0055 86.558L66.2469 86.2031L66.8958 86.2089L67.0145 85.5907L67.6971 85.0349L67.7525 84.7385L67.2638 84.3757L66.9572 84.4674L66.7791 84.1514L66.4863 84.2646L66.2271 83.9837L66.7158 83.8141L66.8226 83.2504L67.1333 83.1237L67.0502 82.7726L65.7543 82.8877L65.9679 82.4313L65.3981 82.2695L65.3249 81.9262L65.0677 82.0705L65.3407 81.5557L65.0558 80.9336L65.2616 80.0872L64.6206 79.3578L64.7769 78.72L63.9321 77.7469ZM55.4384 102.082L55.8776 102.197L55.6798 101.762L55.4384 102.082Z" fill="#D7DBCB"/>
<path d="M49.1173 57.7004L49.3725 57.64L49.4497 57.9247L50.1481 57.8584L50.2272 57.5834L50.5616 57.5268L51.0661 58.1548L51.9742 57.2109L52.1305 57.6107L52.6607 57.2733L52.817 57.6634L53.2859 57.3084L53.6421 57.638L53.8973 57.2265L53.7944 56.9359L54.0852 56.8618L54.5462 57.2226L55.6938 57.0198L56.594 57.4079L57.4823 57.1914L58.1708 57.2928L58.2282 57.7414L58.61 57.8486L58.3509 58.188L58.8653 58.5722L59.0532 58.3245L59.3302 58.8901L59.4133 58.7379L59.8308 58.9252L60.5173 60.38L60.3887 61.1855L60.8121 61.7803L60.8932 62.5116L60.5054 62.6891L60.4421 63.1884L59.9158 63.7656L59.6547 63.7305L59.6191 63.7383L59.0592 64.2123L60.1711 65.5443L60.1552 66.3302L59.8624 66.3458L59.6586 66.8626L60.1216 67.3443L59.8723 68.9006L60.2067 69.2127L59.8149 69.4662L58.7307 68.9845L58.8217 69.8484L57.4605 71.1707L57.5159 71.6329L57.7751 71.8143L57.3418 72.14L57.2884 72.7679L56.6771 73.0215L57.0411 73.6904L56.7681 73.9147L56.6988 73.8971L56.3724 73.981L55.7531 74.0005L55.4425 74.2501L55.116 73.9615L54.2455 74.5875L53.8221 74.4217L52.9674 73.3803L52.1404 73.3667L52.0771 73.1677L51.3371 73.4759L50.7614 72.4988L51.0404 72.2726L50.1896 72.179L49.7524 71.8065L49.7939 71.8006L50.0333 71.5432L49.5288 71.3638L49.9403 70.7943L49.5248 70.5837L49.602 70.0162L49.8355 70.0045L50.3222 69.3628L49.7642 69.0956L50.0669 68.7387L48.6484 68.2512L49.0223 67.6759L48.6068 67.4223L48.3575 67.6154L47.8036 66.6969L46.8104 66.808L46.5769 66.5584L46.1119 67.1103L45.6134 66.6169L45.8053 66.0435L45.3621 65.7178L44.8061 65.8017L44.6162 65.5501L45.3107 64.9475L45.2849 64.4619L45.8666 64.6082L46.2267 63.5511L46.104 62.9856L46.6798 63.0889L47.214 62.537L47.0319 62.067L46.6996 61.8076L46.4859 61.9695L46.1258 61.597L46.294 61.0646L46.0922 60.7506L46.3968 60.5868L45.9537 59.7131L46.4305 59.4946L46.8539 58.8257L47.7007 58.9232L48.0528 57.9598L48.7216 58.1353L48.9471 57.6439L49.1173 57.7004Z" fill="#D7DBCB"/>
<path d="M83.9481 18.8947L84.2509 19.3062L84.3933 20.1741L85.0818 19.7743L85.5329 20.0571L85.7862 19.5247L86.6369 19.6651L86.8605 19.3628L87.3868 19.6183L87.6459 20.1643L88.4472 20.2306L88.5739 20.7592L89.0665 20.8021L89.3237 20.5602L89.5453 20.7279L89.7669 20.2365L90.6849 19.9771L91.7177 20.648L92.2439 20.4432L93.2945 21.1258L93.156 21.3618L93.6586 21.8162L93.3816 22.0463L94.2264 22.8771L94.1512 23.1384L94.3866 23.2516L94.4401 23.6689L94.6715 23.6397L94.5726 24.0219L94.7942 24.3066L95.5896 24.4431L95.8072 24.1019L95.6113 23.7079L96.4344 23.5831L97.2159 23.9809L97.3583 24.9288L97.7501 24.4158L98.2249 24.8527L98.955 24.7357L99.3487 24.921L99.6138 24.568L99.9126 24.5719L99.9323 24.2247L100.587 24.0746L100.514 24.3086L100.993 24.2559L101.274 25.1355L102.123 25.4339L102.168 25.6718L101.689 26.8595L101.347 27.1618L100.651 26.7191L99.6138 27.0272L99.3249 26.877L99.3526 26.6528L97.9717 26.2588L97.7402 25.3793L97.4869 25.5275L97.1981 26.8712L96.8538 26.8088L96.7569 27.154L96.472 27.152L96.561 27.6415L97.3326 27.8736L97.3484 28.0647L97.7145 28.0218L97.3524 28.2481L97.3603 28.5933L97.665 28.6479L97.576 28.9774L97.9717 28.7629L98.1933 28.2325L99.0697 28.5152L98.9807 28.6908L99.5208 29.1881L98.9273 30.1086L99.1172 30.4713L99.4377 30.5006L98.7294 31.815L98.2922 32.1173L97.4691 32.1563L98.035 32.4801L97.6709 32.4099L97.8965 32.7648L97.6314 33.6912L97.8233 33.9427L97.5582 34.2489L97.8945 34.481L98.4129 34.403L98.5711 34.7599L97.4236 36.7608L97.5661 37.1938L96.9369 38.2586L96.472 38.5219L96.2088 39.4912L96.3513 39.6062L96.0822 39.8344L96.2721 40.3278L95.5876 40.6613L94.0325 39.6745L93.6803 39.1674L92.6535 39.8949L92.3013 39.2181L91.9234 38.99L90.404 39.3351V39.2727L89.9489 38.9197L89.8579 38.2957L89.8381 38.282L89.0546 38.4731L88.7499 39.0407L88.3127 39.2883L88.1346 39.261L88.3997 38.8983L88.1762 38.7871L87.7785 39.4073L87.4679 38.8086L86.9792 39.0875L86.8902 38.1123L86.441 37.9875L86.2313 37.5916L85.6675 37.4863L86.0176 37.2094L86.0988 36.3493L86.5024 36.1231L86.1542 35.6843L85.7763 35.5907L85.8772 35.2728L85.5309 34.9822L85.345 35.1987L84.8167 34.3016L84.4447 34.2002L84.0134 34.5025L84.1381 33.9193L83.7404 33.775L84.3616 33.3869L83.2082 32.3357L82.2546 32.1076L81.4928 31.2885L81.0991 31.2826L80.9844 30.838L80.5056 31.0447L80.5946 29.4982L79.6133 28.8039L79.9971 28.2656L79.7913 27.9497L79.9674 27.3744L80.003 27.3392L80.6441 27.0779L80.834 26.6528L80.464 26.5299L80.7905 26.4148L80.8083 26.0404L80.5808 25.8922L80.2246 26.0657L80.5452 25.4846L80.011 24.0512L80.4442 23.7528L80.1079 23.4056L80.925 22.9473L80.9725 22.7035L80.7153 22.5046L80.9527 21.7928L81.3405 21.6582L81.1427 21.3559L81.4572 21.1473L81.4236 20.6694L80.9962 20.139L81.2376 19.6943L81.2515 19.6202L81.4355 19L81.6887 19.0195L81.8549 19.3647L82.4405 19.2848L82.6661 19.628L83.7622 18.6978L83.9481 18.8947Z" fill="#D7DBCB"/>
<path d="M38.5324 92.711L38.5799 92.7422L38.7837 93.2337L38.4414 93.4755L38.2871 93.1342L38.4473 92.7578L38.5047 92.7149L38.5324 92.711ZM38.7738 92.0441L38.8213 92.7403L38.6848 92.7071L38.4869 92.5199L38.7263 92.4244L38.6946 92.005L38.7738 92.0441ZM51.3372 73.4759L52.0771 73.1677L52.1404 73.3667L52.9675 73.3803L53.8222 74.4237L54.2456 74.5894L55.1161 73.9634L55.4425 74.2521L55.7551 74.0024L56.3724 73.9829L56.7127 74.6128L56.6158 75.1472L57.2766 76.1106L56.9323 77.156L57.1737 77.1657L57.2707 77.8132L57.5457 78.0492L57.6505 77.6825L58.2935 77.4758L58.5547 77.4524L58.7644 77.7917L59.8447 77.6767L59.9733 77.2437L60.4719 76.8907L60.3888 76.5124L60.8042 76.0716L60.8379 75.4612L61.926 74.373L62.2327 74.7065L62.2208 75.3461L62.9331 75.1355L63.1685 76.1028L63.4336 76.0521L63.5702 76.2745L63.3604 76.4188L63.5682 77.3432L63.9362 77.7449L64.7889 78.7103L64.6326 79.348L65.2736 80.0774L65.0679 80.9238L65.3528 81.5459L65.0797 82.0608L65.3369 81.9165L65.4102 82.2597L65.98 82.4216L65.7663 82.8779L67.0622 82.7629L67.1453 83.1139L66.8347 83.2407L66.7278 83.8043L66.2391 83.974L66.4983 84.2548L66.7911 84.1417L66.9692 84.4576L67.2759 84.366L67.7646 84.7287L67.7092 85.0252L67.0266 85.581L66.9079 86.1992L66.2589 86.1933L66.0175 86.5483L66.1323 86.9188L65.8375 87.0963L64.6069 86.8623L64.5831 88.4478L63.9599 88.2684L63.4455 88.481L63.313 88.871L62.0724 89.3235L61.7836 88.9822L61.1722 88.8125L60.9249 89.8559L61.4077 90.4195L61.3562 90.9305L60.8596 91.3654L59.4173 91.3127L59.1265 91.5292L57.9908 91.0455L57.6901 91.3595L57.6347 91.89L57.2707 91.5272L56.4674 91.7574L56.1785 91.3147L55.7789 91.615L55.2447 91.4843L55.1972 91.4804L55.0073 91.7574L54.6591 91.2406L54.2436 91.7964L54.3425 92.3658L53.5927 92.3619L53.7034 92.6662L53.3216 93.1186L53.6124 93.6569L53.4819 94.0313L54.1031 94.4623L54.6551 94.5248L54.6571 94.3707L54.9756 94.8602L55.1834 94.6632L55.488 94.8894L55.5791 95.377L55.401 95.5701L55.7611 95.769L55.6305 96.0401L55.9352 96.5452L55.5335 96.5276L55.3397 96.7695L55.7175 96.9099L55.769 97.5613L54.8549 97.7602L54.7224 98.08L55.2724 98.6047L55.1695 98.7977L55.9154 99.0669L56.5782 98.8699L57.332 99.6422L57.2252 99.8391L55.862 99.8606L55.6621 100.346L55.0627 100.366L54.8035 100.75L54.1249 100.818L54.1723 100.668L53.6243 100.643L53.7054 100.35L52.5836 100.243L52.184 99.923L51.6043 99.9679L51.5865 100.377L51.2561 100.502L50.5933 99.2268L49.5625 99.1332L49.0599 99.3438L48.32 98.4681L47.5365 98.4876L47.3426 98.277L47.0617 98.4584L45.2711 97.6607L44.8655 97.9065L44.9566 98.2809L44.7488 98.5208L44.9269 98.6047L44.7251 98.8289L45.0199 99.141L45.0001 99.5291L44.3551 99.3691L42.9187 99.533L42.4063 99.1683L41.8662 99.7241L41.5813 99.2599L40.8967 99.0278L39.4326 99.5993L38.9835 99.5193L38.8866 99.2424L38.5285 99.1507L38.1347 98.3589L37.9092 98.4798L36.8824 97.7934L36.7656 97.0464L37.1455 96.8631L37.0901 96.0771L37.3137 95.7261L37.9765 95.5642L37.8696 94.8758L38.2554 94.7139L38.4909 94.1484L38.8984 94.1815L38.8549 93.6725L39.0508 93.7193L39.3139 93.144L39.0765 92.8007L39.6997 92.3034L39.4267 92.0148L39.4504 91.2035L38.9044 91.5857L38.9162 91.0065L39.306 90.9071L38.9123 90.0626L38.6887 90.1153L38.665 89.6862L38.0022 89.5263L37.4977 89.6784L37.4264 89.3098L37.1613 89.2806L37.1435 89.0056L37.47 88.8749L37.4067 88.2899L37.8597 87.9544L37.5986 87.1626L37.8696 87.1431L37.745 86.6088L37.927 86.4898L37.4898 86.1621L37.9824 85.696L38.6689 85.817L39.1576 85.1909L39.5118 85.5303L39.2842 85.8092L39.9411 86.1778L40.0816 85.9476L39.9134 85.4464L40.499 84.994L40.7424 85.3177L41.0312 84.8438L41.3537 84.7658L41.9255 85.1168L42.0422 84.9062L43.0928 84.6858L43.2471 84.3796L44.0267 84.3894L44.3314 84.1066L44.913 84.7346L45.5402 84.3153L45.6846 83.8024L46.0249 83.7614L45.9517 83.3967L46.5512 83.5878L46.8144 83.4611L46.7431 83.0437L46.48 82.9423L46.9172 82.8682L47.2793 81.9282L46.6106 81.5264L46.8322 80.7268L47.03 80.6937L47.2021 81.1325L47.2892 80.9472L48.1894 80.9024L48.1419 80.2139L47.8313 80.0111L47.8273 79.3188L47.5365 78.8975L47.8135 78.9775L48.5436 78.566L48.4644 78.3378L48.9491 77.8229L48.8997 77.4719L49.519 77.3159L50.2747 76.6743L50.1303 76.0404L50.6863 75.8688L50.6526 75.4983L51.2956 75.0926L51.0661 74.7299L51.3035 74.6616L51.0721 73.786L51.0384 73.6514L51.3372 73.4759Z" fill="#D7DBCB"/>
<path d="M60.4812 0.502038L60.586 1.17682L61.0629 1.88476L60.7206 2.2397L60.7977 3.13681L61.0906 3.61266L61.8107 3.63997L62.3964 4.7399L62.8257 4.7594L63.3164 5.1514L63.6942 4.38886L65.3245 3.90325L65.653 4.73015L66.2228 5.03048L66.0467 5.5863L66.476 7.28496L67.1705 7.70621L67.7561 7.51118L67.9816 7.17184L68.3437 7.29471L68.1933 7.75496L69.0797 7.6438L69.507 8.14306L69.4932 9.24104L69.9027 10.0562L70.2272 9.47312L71.07 9.46142L71.4954 9.77931L72.5025 9.37366L72.9278 9.98213L73.2622 10.0757L73.4324 10.6511L73.6757 10.6472L73.6361 10.2571L74.016 10.4736L74.1209 10.7174L73.5432 11.2205L73.5788 11.8485L73.3611 12.221L73.9507 12.2288L74.198 13.0303L73.6223 13.2956L73.4719 14.1556L73.0129 14.2883L72.1365 13.984L72.1503 13.3463L71.3728 13.7831L71.2461 13.4282L69.9522 13.0225L69.5347 13.2234L69.4991 13.5257L69.1252 13.5823L68.5495 13.2098L68.1142 13.67L67.0695 13.436L66.7886 13.6973L66.3652 13.7168L66.2089 13.4887L65.5006 13.7519L64.8576 13.2332L64.2007 13.1532L63.8446 13.3736L63.4272 13.28L62.9642 13.6388L62.9127 12.9231L62.0046 13.3463L62.2777 12.4979L61.8582 12.3146L61.6742 12.301L61.6445 12.8782L60.594 12.4745L60.6098 12.1371L60.4021 12.104L60.2438 12.4667L60.0914 12.1254L59.8164 12.1586L59.304 12.8002L58.9538 12.5213L59.0507 11.9675L59.9292 11.4526L59.5711 11.0002L59.2011 10.9475L58.8094 11.3024L58.5937 10.8929L58.5502 11.2205L58.0813 11.0216L57.0901 11.5072L56.9258 11.2634L56.5618 11.3766L56.4886 10.7271L55.4182 10.2766L55.2995 10.1304L55.5745 9.85147L55.4262 9.73055L55.1076 9.97823L54.2569 9.35611L53.1093 9.74615L52.9174 9.46532L52.1973 8.85295L52.4624 7.10554L52.8601 7.42342L52.3773 6.71159L52.2645 4.7165L52.2982 4.52927L52.3733 4.83546L52.5217 4.63459L52.684 3.72383L52.4169 2.86182L53.0757 2.6707L53.7622 1.92376L54.797 1.59222L54.5556 1.54736L56.6409 1.0169L56.7458 1.14952L57.1811 0.708763L57.0901 0.938891L57.3433 1.17682L57.4798 0.708763L57.5471 0.858931L58.7658 0.447432L58.9934 0.609301L60.3387 0.0651855L60.4812 0.502038Z" fill="#D7DBCB"/>
<path d="M23.557 17.3267L23.9488 17.586L24.2376 17.4378L24.4632 17.7791L26.1587 18.175L26.1192 18.4636L26.2221 18.1887L27.2172 18.0502L27.332 17.6914L29.0414 17.7011L29.3382 18.8147L29.1245 18.7406L28.9801 19.2593L28.984 19.0858L28.7723 19.1248L28.6774 19.5558L29.8506 21.3032L29.5637 22.2042L29.9495 21.8571L30.27 22.0891L30.6084 21.5197L31.5066 21.4261L33.2318 22.0267L36.1996 22.2237L37.1433 22.7249L37.4381 22.6216L37.6082 22.8731L39.4265 22.3271L40.481 21.3793L41.2744 21.0497L40.3484 21.0107L41.7809 20.9892L42.1152 22.1398L41.8739 22.4382L42.1034 22.6781L41.9886 22.84L42.4259 22.6703L42.598 22.8146V23.0779L42.0796 23.2749L42.687 23.741L42.6099 24.4392L43.0036 24.5971L42.7365 25.0223L42.8928 25.4026L42.4635 25.6815L43.1243 26.1378L42.6 27.4133L43.1678 27.8228L43.9711 27.8774L44.2164 27.6493L44.2896 27.9067L44.5033 27.8345L44.4597 28.1173L44.6754 28.1212L44.4538 28.3942L45.6646 29.1899L45.7952 29.5527L45.4173 29.9291L45.7596 30.0714L45.7754 30.3874L46.1434 30.3815L46.1731 31.0895L47.3839 32.168L47.1327 32.7413L47.4611 33.1801L46.9546 34.0051L45.7695 34.6175L45.6488 34.8944L46.0663 35.0211L45.9179 35.3624L46.2641 35.9358L45.997 36.1698L45.5064 36.242L44.8139 35.3254L44.6932 35.6979L43.8444 35.5068L43.4665 34.7618L43.3834 34.9022L42.6672 34.6194L42.5861 33.3673L41.9174 32.6848L40.6334 32.9676L40.7362 33.1626L40.0319 33.5624L39.9231 33.9388L39.4383 33.6989L39.0268 33.9758L39.0288 33.0436L38.2394 32.9734L38.0178 32.3201L38.2493 32.1075L37.7408 31.6726L37.3965 31.6648L37.4599 32.0061L37.2125 32.3591L36.803 32.1758L36.5399 32.6419L36.1818 32.3279L35.2519 32.3396L34.9135 32.7764L34.0905 33.1294L33.9916 32.6282L33.7838 32.8349L33.4435 32.7725L33.582 33.0592L33.2022 33.2289L33.0478 32.872L32.761 32.9949L32.5018 32.4585L31.9794 32.4917L31.5956 32.2401L31.1979 32.5814L30.6598 32.3513L29.1502 31.9164L28.3272 32.831L27.7732 32.9285L27.2212 32.5853L26.5366 30.8125L27.0253 30.9881L27.0352 30.7735L27.2034 30.9549L27.7356 30.7092L28.3272 30.8379L27.8503 30.5103L28.0581 30.3094L27.5556 30.559L26.5564 29.4357L26.5208 28.5191L26.1924 28.3552L26.7958 27.1675L26.6158 27.0525L26.6573 26.0052L27.0926 26.0793L26.6336 25.8609L26.4872 26.329L26.3091 25.8589L26.1864 23.6415L26.5703 23.6045L26.1845 23.4445L26.0836 23.7507L25.4227 22.2744L24.5799 21.7283L24.2653 20.0979L23.9389 19.7216L24.3267 19.2632L24.2614 18.5124L24.0418 18.1653L23.4502 17.9663L23.557 17.3267Z" fill="#D7DBCB"/>
<path d="M50.7592 13.0946L51.3448 13.0225L51.3745 13.4067L53.5073 15.3237L53.6893 16.2228L54.1147 16.88L53.814 16.8683L53.3193 17.7245L53.4598 17.9L53.8318 17.7245L53.3866 18.3564L53.5825 18.6177L53.4143 19.1267H53.3787L53.808 19.6786L53.5528 20.1057L53.7784 20.2851L53.899 20.0082L54.1523 20.1057L54.0019 20.527L53.9228 20.5777L53.5251 21.3032L53.7368 21.3246L53.5864 21.4767L53.9109 21.8161L54.0039 22.7405L54.2631 22.9531L54.1404 23.3061L53.8852 22.9804L53.4855 23.0759L53.44 23.4835L52.7713 25.2836L51.9799 25.4825L51.9364 25.4845L51.8474 25.2855L51.6732 25.7165L51.3428 25.6814L51.5921 26.1671L51.5249 26.6351L51.9245 26.6039L51.7049 26.7443L51.7781 27.0739L51.3409 27.2787L51.4418 27.9145L50.6345 28.3728L50.7196 29.0261L50.3912 29.2718L49.489 29.3108L48.658 28.9266L48.6086 29.4512L48.1812 29.3069L47.74 29.7106H47.5699L46.6459 29.8296L46.5411 30.1689L46.1454 30.3874L45.7774 30.3932L45.7615 30.0773L45.4193 29.9349L45.7971 29.5585L45.6666 29.1958L44.4557 28.4001L44.6773 28.127L44.4617 28.1231L44.5052 27.8404L44.2915 27.9125L44.2183 27.6551L43.973 27.8833L43.1697 27.8286L42.6019 27.4191L43.1262 26.1436L42.4654 25.6873L42.8947 25.4084L42.7384 25.0281L43.0055 24.603L42.6118 24.445L42.6889 23.7468L42.0815 23.2807L42.5999 23.0837V22.8204L42.4278 22.6761L41.9905 22.8458L42.1053 22.6839L41.8758 22.444L42.1172 22.1457L41.7828 20.995L41.8639 20.7746L41.67 20.9229L40.3781 20.5309L39.9863 20.0355L40.6966 18.3466L40.4572 18.0326L40.7164 18.1496L41.1418 17.4963L42.2082 17.0751L44.2599 15.7021L45.7873 15.472L47.3245 14.8303L47.8093 14.9688L48.3454 14.7309L48.4285 14.9532L48.3751 14.7075L49.2555 14.294L50.7592 13.0946Z" fill="#D7DBCB"/>
<path d="M20.9059 50.1277L21.2303 50.352L21.1136 50.7517L21.7289 51.0579L21.7883 51.7035L21.3075 50.9526L20.8703 50.9351L20.5517 50.5587L20.4963 50.1628L20.9059 50.1277ZM30.6519 32.3532L31.19 32.5834L31.5877 32.2421L31.9716 32.4936L32.4939 32.4605L32.7531 32.9968L33.0399 32.8739L33.1943 33.2308L33.5741 33.0612L33.4356 32.7745L33.7759 32.8369L33.9837 32.6302L34.0826 33.1314L34.9056 32.7784L35.244 32.3415L36.1739 32.3298L36.532 32.6438L36.7951 32.1777L37.2046 32.361L37.452 32.008L37.3886 31.6667L37.7329 31.6745L38.2414 32.1095L38.0099 32.322L38.2315 32.9754L39.0209 33.0456L39.0189 33.9778L39.4304 33.7008L39.9152 33.9407L40.024 33.5643L40.7283 33.1645L40.6255 32.9695L41.9095 32.6867L42.5782 33.3693L42.6593 34.6214L43.3755 34.9041L43.4586 34.7637L43.8365 35.5087L44.6853 35.6998L44.806 35.3273L45.4985 36.244L45.9891 36.1718L46.9586 36.8427L46.4264 36.909L46.3472 37.2659L46.1177 37.3185L46.3789 37.3751L46.3611 37.6442L45.9555 37.6735L45.9852 38.0772L46.3532 38.1669L46.1593 38.6934L46.4086 39.2473L46.1336 39.3429L46.0999 39.8694L45.9238 39.5867L45.6864 39.7212L45.7517 40.5462L45.1265 41.1332L45.2037 41.3282L44.5884 41.5096L44.252 41.9172L44.3351 42.2702L44.525 42.2136L44.3391 42.4672L43.2529 42.7889L43.1322 43.0971L42.5901 42.8045L42.4358 43.0912L42.7523 43.5827L42.5921 43.6841L41.3496 43.2667L41.3595 43.3682L41.033 44.0546L41.2962 44.1951L41.2586 44.5208L40.6947 45.7221L40.9361 45.9347L40.0735 47.1263L39.8855 48.5226L39.5927 48.392L39.375 48.5694L39.1357 49.4431L38.7241 49.2754L38.37 49.8273L37.9604 49.6362L38.2612 49.2423L37.9209 49.1838L37.7527 49.3515L37.2502 49.215L36.1758 49.3866L36.0848 49.6772L35.4794 49.8351L35.6575 49.5016L35.3686 49.4782L34.8621 49.7084L34.967 50.0828L34.5139 50.5041L33.9283 50.43L33.5662 50.6581L32.9687 50.4046L32.4345 50.8259L32.0764 50.7713L32.3435 50.9195L32.2228 51.1106L32.4721 51.1184L32.3771 51.2471L32.8025 51.4051L32.6126 51.8322L33.0696 52.3626H33.1032L33.4297 52.5791H33.4871L33.7027 52.7176L33.5385 52.8678L33.5464 52.9165L33.5266 53.3553L34.049 54.0047L33.857 54.1686L34.2072 54.4377L34.0292 54.7556L34.3813 54.9272L34.2745 55.4694L34.4664 55.9745L34.1083 56.1149L34.4308 56.8833L34.1617 57.5561L34.3339 57.6302L34.4546 57.3689L35.0006 57.7082L34.1123 58.5059L33.6988 58.4064L33.5009 58.6795L32.6343 58.266L32.5987 58.2153L32.4444 58.5039L32.1437 58.3947L31.7757 58.5878L31.5323 58.4435L31.7915 57.876L30.7746 58.1236L30.6005 58.5039L30.2641 58.5117L29.5598 58.5312L29.5261 59.0578L28.6259 58.3089L28.7921 58.8101L28.3984 58.2134L27.3775 58.2114L26.9937 57.4918L25.8897 57.3026L24.5384 56.4269L24.1822 55.0618L23.4344 54.032L21.8397 52.5674L21.7586 51.7717L22.0989 51.7425L22.0257 51.5416L22.734 50.8337L22.7736 50.3559L23.1891 50.1199L22.1958 49.0999L20.985 48.8873L21.6498 48.4641L21.6082 47.3271L21.2778 47.2569L20.5577 47.7016L19.9325 47.1614L19.4715 47.3993L18.5416 47.021L18.8384 46.8025L18.8621 46.4495L18.4209 46.0205L19.2479 45.4335L19.2519 45.1429L19.5348 44.7977L19.7128 45.0454L20.4053 44.9888L20.5596 44.3296L21.0008 44.589L21.4935 44.3725L21.6696 44.6456L21.721 44.2653L22.2077 44.1307L22.3423 42.7304L23.2346 42.2039L23.3849 42.473L24.1644 42.0264L25.8086 42.0147L26.1192 41.3672L27.3439 40.8933L27.2964 40.5052L28.0403 40.591L28.2441 40.9401L29.2017 41.2112L29.9535 38.945L31.0911 38.4828L30.6143 36.0918L30.5807 36.0606L30.3967 35.2981L30.8557 34.5375L30.5609 33.4941L30.6519 32.3532Z" fill="#D7DBCB"/>
<path d="M52.8084 9.37349L52.9252 9.46515L53.1171 9.74599L54.2646 9.35594L55.1153 9.97806L55.4339 9.73038L55.5823 9.8513L55.3073 10.1302L55.426 10.2765L56.4963 10.727L56.5695 11.3764L56.9336 11.2633L57.0978 11.507L58.089 11.0214L58.5579 11.2204L58.6014 10.8927L58.8171 11.3023L59.2088 10.9473L59.5788 11L59.9369 11.4524L59.0585 11.9673L58.9615 12.5212L59.3117 12.8001L59.8241 12.1584L60.0992 12.1253L60.2515 12.4666L60.4098 12.1038L60.6175 12.137L60.6017 12.4744L61.6523 12.8781L61.6819 12.3008L61.8659 12.3144L62.2854 12.4978L62.0123 13.3461L62.9205 12.9229L62.9719 13.6387L63.4349 13.2798L63.8523 13.3734L64.2085 13.153L64.8653 13.233L65.5083 13.7518L66.2166 13.4885L66.3729 13.7167L66.7963 13.6972L67.0773 13.4358L68.1219 13.6699L68.5572 13.2096L69.1329 13.5821L69.5069 13.5255L69.5425 13.2233L69.9599 13.0224L71.2539 13.428L71.3805 13.783L72.158 13.3461L72.1442 13.9838L73.0206 14.2881L73.4797 14.1555L74.2117 14.4129L74.093 14.9765L74.4056 15.1013L74.3858 15.5479L73.998 16.6537L74.3581 16.9404L73.8259 17.6639L73.3412 17.9253L73.2501 18.4869L72.6408 18.4284L72.4963 18.6254L72.9435 19.2592L72.712 19.5869L72.9534 19.8404L72.6428 20.0608L72.8663 20.8233L72.6151 20.913L72.6032 21.8823L71.9681 21.6697L71.6753 21.307L71.1154 21.6366L71.0798 22.0754L70.4763 21.933L69.3881 22.4635L69.6572 23.4386L69.4594 23.7097L69.6909 23.9047L69.8274 23.7818L69.9599 24.1543L70.2409 24.1017L70.2349 24.3767L69.8768 24.5814L69.1962 24.482L69.0201 24.8623L69.3268 25.3849L68.9054 25.5936L68.8915 25.8803L69.4297 25.8042L69.6533 26.1592L68.9331 26.8242L69.0399 27.0348L68.7986 27.0797L68.7709 27.3839L68.4226 27.4151L68.0725 28.1484L67.8746 28.3278L67.746 28.0489L67.2316 27.9066L67.105 27.2142L66.7864 27.4619L66.5886 26.9627L66.2582 27.0836L66.1494 26.6701L65.4589 26.1806L65.6508 25.7145L65.2234 25.0241L64.6615 24.8896L64.6338 25.2816L64.161 25.2036L63.9849 25.4571L63.8306 25.2036L62.871 25.4668L62.5129 25.1411L61.9016 25.5819L61.0726 24.9968L60.667 25.3498L60.4118 24.7999L60.2456 25.1041L59.9013 25.0241L60.0121 24.8837L59.654 24.599L59.4403 24.6906L59.4898 24.5307L58.9556 24.3689L58.8131 24.5112L58.4531 24.0393L58.2216 24.3689L57.7903 24.4742L57.6715 24.127L57.2778 24.322L56.5418 23.7448L55.8929 24.1719L54.9175 24.3318L54.2646 24.0549L53.863 24.1758L53.7146 23.9359L53.6394 23.9378L53.7423 23.5751L53.4455 23.4815L53.491 23.0739L53.8907 22.9783L54.1459 23.304L54.2686 22.951L54.0094 22.7385L53.9164 21.814L53.5919 21.4747L53.7423 21.3226L53.5306 21.3011L53.9283 20.5756L54.0074 20.5249L54.1578 20.1037L53.9045 20.0062L53.7838 20.2831L53.5583 20.1037L53.8135 19.6766L53.3842 19.1247H53.4198L53.588 18.6157L53.3921 18.3543L53.8372 17.7224L53.4653 17.898L53.3248 17.7224L53.8194 16.8663L54.1202 16.878L53.6948 16.2208L53.5128 15.3217L51.38 13.4046L51.3503 13.0204L50.7646 13.0926L51.374 12.5368L51.9537 11.2964L52.3316 11.1736L52.4899 11.548L53.0755 11.7021L53.3149 11.5305L52.0883 10.4461L52.2228 9.34424L52.8084 9.37349Z" fill="#D7DBCB"/>
<path d="M27.8815 61.6342L28.6372 62.2602L29.2743 62.3792L29.2882 63.0188L29.6977 63.8204L29.3317 64.5186L29.0191 63.5766L28.0516 62.7302L27.8815 61.6342ZM27.0327 59.1925L27.3334 59.4655L26.9496 59.5201L27.1079 59.8146L27.832 59.5104L27.6144 59.7034L27.7311 59.8478L28.2237 59.76L29.1635 60.2983L28.6887 60.5303L27.4363 59.84L26.8467 59.8419L26.6152 59.3563L27.0327 59.1925ZM30.2715 58.5021L30.6078 58.4943L30.7819 58.114L31.7989 57.8663L31.5397 58.4338L31.783 58.5782L32.151 58.3851L32.4518 58.4943L32.6061 58.2057L32.6417 58.2564L33.5083 58.6698L33.7061 58.3968L34.1196 58.4962L35.008 57.6986L34.4619 57.3593L34.3412 57.6206L34.1691 57.5465L34.4382 56.8737L34.1157 56.1053L34.4738 55.9648L34.2819 55.4597L34.3887 54.9176L34.0365 54.7459L34.2146 54.4281L33.8644 54.1589L34.0563 53.9951L33.534 53.3457L33.5538 52.9069L33.5459 52.8581L33.7101 52.7079L33.4944 52.5695H33.4371L33.1106 52.353H33.077L32.6199 51.8225L32.8099 51.3954L32.3845 51.2375L32.4795 51.1088L32.2302 51.101L32.3509 50.9098L32.0838 50.7616L32.4419 50.8162L32.9761 50.395L33.5736 50.6485L33.9356 50.4203L34.5213 50.4944L34.9743 50.0732L34.8695 49.6987L35.376 49.4686L35.6648 49.492L35.4868 49.8255L36.0922 49.6675L36.1832 49.3769L37.2575 49.2053L37.7601 49.3418L37.9282 49.1741L38.2685 49.2326L37.9678 49.6266L38.3773 49.8177L38.7315 49.2658L39.143 49.4335L39.3824 48.5598L39.6 48.3823L39.8929 48.513L40.1085 49.0454L40.6012 48.9752L40.5576 49.1858L40.7812 49.2599L40.9434 49.0922L41.0938 49.373L40.9157 49.7592L41.4638 49.6129L41.6537 49.9562L41.9386 49.8548L42.0158 50.4808L41.8417 50.5763L42.1068 51.2843L42.4491 51.062L43.0505 51.2979L43.6025 50.9508L44.3623 50.9703L44.113 50.3911L44.5225 50.3755L45.1299 50.7753L45.2348 51.608L45.9886 52.2399L46.1429 52.9537L46.9442 53.687L47.0629 54.0731L46.774 54.8337L46.9224 55.1652L47.7752 55.565L47.8207 55.9258L48.4201 55.9219L48.8435 56.2652L48.897 56.9517L49.3995 57.1272L49.2729 57.4997L49.1225 57.6967L48.9524 57.6401L48.7268 58.1316L48.0601 57.958L47.7079 58.9214L46.8611 58.8239L46.4377 59.4928L45.9609 59.7112L46.4041 60.5849L46.0994 60.7488L46.3032 61.0628L46.135 61.5952L46.4951 61.9677L46.7087 61.8058L47.0411 62.0652L47.2212 62.5352L46.687 63.0871L46.1112 62.9818L46.2339 63.5474L45.8738 64.6044L45.2922 64.4581L45.3159 64.9457L44.6214 65.5483L44.0892 66.4318L43.6421 66.4376L43.5887 67.3737L43.1336 67.6936L42.9912 68.1285L42.5717 68.1304L42.1602 68.6336L41.9287 68.4346L42.0494 68.694L41.7131 68.8052L41.4776 69.4702L41.632 70.301L40.8861 70.7184L40.5537 71.3463L39.9047 71.1065L39.513 71.3873L39.2894 71.8203L39.4794 71.9568L39.143 72.103L39.0837 72.5769L38.7236 72.3137L38.2665 72.6803L37.8788 72.6257L37.3208 72.3917L37.1447 72.0738L36.8658 72.1284L36.6699 71.8027L36.4622 71.7637L36.294 72.066L36.1476 71.6272L36.1377 71.5765L35.9478 70.5214L34.7983 70.3147L34.6143 69.7394L34.547 70.0358L33.5637 69.9539L33.2372 68.8286L32.707 68.0641L31.4724 67.2782L31.0332 66.5605L29.5375 65.7063L29.3139 65.7531L29.4089 65.989L29.2882 65.755L29.2763 64.6746L30.127 64.4796L29.7551 63.8965L30.2774 63.8301L30.6058 63.2646L30.3981 62.8297L30.5781 62.7809L30.5346 62.4357L30.2378 62.1588L30.7938 62.1627L30.3922 61.0901L30.0499 60.9555L30.1666 60.7176L29.7966 60.5908L29.9905 60.3665L29.5236 60.505L29.2684 60.2905L29.5751 59.7307L30.315 59.1671L30.1251 58.6718L30.2715 58.5021Z" fill="#D7DBCB"/>
<path d="M80.4326 80.2704L80.5138 80.3601L81.0895 80.7053L81.0954 80.7716L80.7037 80.953L80.4049 81.7175L79.6036 81.5849L79.475 81.0758L79.7738 80.5434L79.845 80.4186L79.9083 80.3855L80.0449 80.3543L80.2981 80.1534L80.3317 80.2392L80.4168 80.2489L80.4326 80.2704ZM83.3133 93.766L83.5923 93.3038L83.3489 93.0249L83.5764 92.8767L83.0442 92.1434L82.3814 92.5062L80.9154 92.5491L80.2585 91.4355L79.849 91.3594L79.6333 91.6617L79.7322 91.3887L79.5344 91.5038L79.3643 91.1079L79.5008 91.5993L79.0952 91.3867L79.3662 91.6988L78.9112 91.8743L79.2891 91.8489L79.1565 91.9816L79.5087 92.2039L79.8252 91.9328L79.1644 92.5198L77.0751 92.159L76.8773 91.9328L77.1444 91.4725L76.6735 91.1391L74.1846 91.0493L74.2716 90.6105L74.9443 90.2888L74.8632 89.9865L75.0274 90.2029L76.08 89.6023L76.165 89.3448L75.7891 89.2161L76.2778 88.399L76.7269 88.2878L77.4491 88.5296L77.3244 88.083L77.7735 86.751L77.5618 86.5073L78.9784 85.4268L78.9765 85.146L79.2277 85.1343L78.7509 84.2742L78.2088 84.0968L78.2167 82.9071L78.1 82.6048L77.8191 82.5912L77.6252 81.971L77.6351 81.3001L78.7687 81.4893L79.018 82.4566L80.9965 81.5536L81.3962 81.893L81.7444 81.5322L81.875 81.4717L81.7543 82.4079L82.3913 82.6419L82.5516 82.4157L82.9532 82.6887L83.4221 82.6068L83.6655 82.7647L83.6497 83.2718L84.081 83.3108L84.2412 83.6755L84.9515 83.5253L85.4461 82.8642L85.7567 83.1294L85.6875 83.3245L86.0753 83.3713L86.1089 83.1782L85.7844 83.0885L86.1386 82.8116L86.1406 82.0139H85.8161L85.729 81.6336L85.4936 81.5712L85.6677 81.2631L84.999 81.3001L84.7814 81.068L84.5499 81.2163L84.0335 80.797L83.9405 80.2294L84.4153 80.2958L84.5875 80.0949L84.3124 79.9759L84.259 79.3947L85.5411 79.7087L85.6598 79.385L85.9506 79.3596L85.4006 78.8896L85.8181 78.1212L85.7785 77.6688L86.4848 77.8131L86.651 77.5518L86.9814 77.6493L87.3178 77.23L87.0586 77.0486L87.2901 76.446L87.7491 76.5942L88.311 76.4343L88.5504 76.1944L88.2971 75.9292L88.857 75.5781L89.1756 75.8005L89.8126 75.2505L90.7445 75.3909L91.1066 75.1413L91.6348 75.3578L91.6546 74.3943L91.3638 74.2286L91.3737 73.7157L90.3923 73.5167L90.7307 72.3232L91.1283 72.4656L91.4508 72.292L91.71 72.8985L92.4183 73.1072L92.7111 73.0721L92.6597 72.6391L92.907 72.4519L93.1642 72.5611L93.4629 72.2861L93.8962 72.4558L94.2444 73.4894L94.8261 73.5538L94.8815 74.7961L95.8055 75.4241L96.1893 75.4962L96.397 75.2895L97.1093 75.7302L96.9233 76.1203L97.5485 77.3216L96.6127 77.3899L96.6562 78.0432L95.7342 79.0632L95.9202 79.6093L96.4979 80.1787L96.0409 80.2723L95.9974 80.9393L96.8778 81.8676L96.9767 82.3669L98.4586 82.755L99.2124 83.4356L99.7347 83.3752L99.8535 83.7223L100.405 83.7574L100.455 83.5526L101.998 83.3362L102.149 83.03L102.536 83.0534L102.392 83.5429L102.788 84.0734L102.712 84.5414L102.362 84.6955L102.275 85.3059L101.575 85.6686L101.504 86.1816L101.001 86.4429L101.286 87.4531L100.265 88.165L99.713 88.2371L99.6655 88.6428L99.5191 88.3034L99.4301 88.5394L98.9196 88.4965L98.6466 88.9255L98.2192 88.8982L97.9304 89.6354L98.1223 90.0235L97.9244 90.1366L97.7365 89.8129L97.2458 90.2107L97.0618 90.0333L96.6246 90.1327L96.4129 90.4448L96.5751 90.6339L96.0389 91.3906L95.202 91.6149L94.84 91.4569L94.6045 92.2877L93.4412 93.1263L94.4482 93.1888L94.1851 93.452L94.3157 93.9318L93.9932 94.0761L94.0347 94.2867L93.8211 94.3921L93.3324 94.0469L92.8002 94.4701L91.8802 94.5422L91.712 95.1838L90.974 94.7997L90.2578 94.8679L89.9571 95.4159L89.9986 95.8411L89.506 95.8177L89.7869 95.648L89.7454 95.2619L88.8986 95.2736L88.7363 94.9674L88.1309 95.0083L88.0914 94.7606L87.7629 95.0064L88.309 95.3867L87.844 95.2658L87.5829 95.6226L87.3277 95.5875L87.0368 95.3789L87.1615 94.866L86.8192 94.8562L86.8647 94.6046L86.2316 94.552L86.1564 94.1522L85.6262 94.0781L85.4798 94.3725L84.9179 93.7699L84.6171 93.9649L83.3133 93.766Z" fill="#D7DBCB"/>
<path d="M71.4675 58.976L71.3963 59.6937L72.0729 59.8302L72.2095 60.2203L73.1413 59.877L73.7606 60.1676L74.002 59.9277L74.1504 60.1227L74.3838 60.0077L74.3462 60.3451L74.5559 60.3724L75.3553 60.0272L75.6263 58.7439L76.0616 58.7283L76.4335 59.0735L76.9618 58.7673L77.3713 59.0989L77.5276 58.6835L77.8778 58.623L78.1311 58.9448L77.8758 59.1749L78.3408 59.4733L78.2043 59.9238L78.5248 60.1852L78.7009 60.1364L80.0245 56.1365L80.1036 56.3432L80.3786 56.1794L80.9742 56.5402L81.8763 56.3061L81.8862 56.1287L82.2008 56.2866L82.4422 56.8444L83.0872 56.9809L82.9606 57.369L83.5996 57.7298L83.469 57.8702L83.8172 58.5684L83.9854 58.1316L84.0903 58.5118L84.4049 58.5099L84.393 59.1086L84.9292 59.0599L85.7839 58.1706L85.8135 58.4104L86.3655 58.584L86.4605 59.1496L87.6456 59.1047L89.2502 57.3378L90.1148 57.9131L89.5588 58.8707L89.7428 59.2685L88.5577 59.6703L88.4311 59.9043L88.6784 60.0798L88.3737 60.6981L89.1493 60.425L89.7764 60.5654L91.1475 59.5708L91.2643 59.21L90.8626 59.2646L90.7578 58.6562L90.5322 58.5587L90.7954 57.995L92.9855 56.86L94.325 56.8873L95.4587 57.2091L95.0531 58.0477L95.8247 58.9175L95.3261 59.8107L95.2687 60.5811L96.1017 60.7332L95.9137 61.6205L96.3984 61.4314L97.2413 62.7146L97.2947 63.0754L96.903 63.6722L96.2184 64.0349L95.4567 64.0798L95.3479 65.3689L96.2362 66.2231L96.9307 66.3596L96.7427 66.9583L96.9326 67.9139L97.3798 68.0329L97.3362 68.2903L97.7517 68.3196L97.8724 68.7389L98.4699 69.0529L97.8368 69.9539L98.0406 70.7749L97.5044 71.282L96.9425 71.1864L96.4815 71.7656L96.0502 71.7813L96.0482 72.144L95.6862 72.2532L95.0194 71.8827L93.8976 72.4502L93.4643 72.2805L93.1656 72.5555L92.9084 72.4463L92.6611 72.6335L92.7125 73.0665L92.4197 73.1016L91.7114 72.8929L91.4522 72.2864L91.1297 72.4599L90.7321 72.3176L90.3937 73.5111L91.3751 73.71L91.3652 74.2229L91.656 74.3887L91.6362 75.3521L91.108 75.1357L90.7459 75.3853L89.814 75.2449L89.177 75.7948L88.8584 75.5725L88.2985 75.9236L88.5518 76.1888L88.3124 76.4287L87.7505 76.5886L87.2915 76.4404L87.06 77.043L87.3192 77.2244L86.9828 77.6437L86.6524 77.5461L86.4862 77.8075L85.7799 77.6632L85.8195 78.1156L85.402 78.884L85.952 79.354L85.6612 79.3794L85.5425 79.7031L84.2604 79.3891L84.3138 79.9703L84.5889 80.0893L84.4167 80.2901L83.9419 80.2238L84.0349 80.7913L84.5513 81.2106L84.7827 81.0624L85.0004 81.2945L85.6691 81.2574L85.495 81.5656L85.7304 81.628L85.8175 82.0083H86.142L86.14 82.8059L85.7858 83.0829L86.1103 83.1726L86.0767 83.3656L85.6889 83.3188L85.7581 83.1238L85.4475 82.8586L84.9529 83.5197L84.2426 83.6699L84.0824 83.3052L83.651 83.2662L83.6669 82.7591L83.4235 82.6012L82.9546 82.6831L82.553 82.41L82.3927 82.6363L81.7557 82.4022L81.8763 81.4661L81.7458 81.5266L81.3976 81.8874L80.9979 81.548L79.0194 82.451L78.7701 81.4837L77.6365 81.2945L77.6266 81.9654L76.4434 81.1404L76.0161 81.2009L75.8914 81.823L75.5432 81.7411L75.5135 81.1092L74.9734 81.2009L74.4056 82.0278L73.359 81.2204L72.6863 81.4193L72.623 80.6041L72.8564 80.4461L72.1936 79.6914L71.9008 78.5759L71.4933 78.3087L71.151 76.61L71.6614 76.3331L71.8731 75.67L72.1936 75.8436L72.1462 75.6018L72.2906 75.75L72.5221 75.594L72.5755 75.1532L73.5766 75.1435L74.1365 74.1157L74.8666 74.0026L74.7241 73.4741L75.4087 73.2771L75.1376 72.8207L75.3394 72.4794L75.565 72.495V72.3917L75.3592 72.0504L75.7608 72.1362L75.8657 72.4385L76.0438 72.3351L75.9627 71.8573L76.3168 71.1455L75.8677 70.5487L75.472 70.7613L75.1554 70.5487L75.3335 70.2406L75.011 70.0533L75.3058 69.8408L75.0367 69.4741L74.5243 69.5911L74.2038 69.2342L73.7547 69.1933L73.4796 69.2928L73.5529 69.5131L72.9573 69.5892L72.8742 69.8466L72.4607 69.6945L72.4409 69.9383L72.1719 69.4351L71.8632 69.3864L71.5071 69.8681L71.3825 69.1679L71.9918 68.6999L72.1679 68.0114L71.7485 67.0617L70.8443 66.4454L70.4585 65.757L70.4882 65.3689L69.7344 64.6024L70.0094 64.3431L69.952 63.6878L70.2745 63.5025L69.768 62.9915L69.8313 62.5352L70.5416 62.4923L70.8977 62.1919L70.686 61.562L70.8186 61.1525L70.5851 60.8814L70.7137 60.2866L70.3794 59.3973L71.333 58.9916L71.4042 58.9819L71.4675 58.976ZM79.9038 80.3818L79.8405 80.4149L79.7693 80.5398L79.4705 81.0722L79.5991 81.5812L80.4004 81.7138L80.6992 80.9493L81.0909 80.7679L81.085 80.7016L80.5092 80.3564L80.4103 80.2433L80.3252 80.2336L80.2916 80.1478L80.0383 80.3486L79.9038 80.3818Z" fill="#D7DBCB"/>
</g>
<defs>
<clipPath id="clip0_71_746">
<rect width="118" height="114" fill="white"/>
</clipPath>
</defs>
</svg>
