<svg width="334" height="326" viewBox="0 0 334 326" fill="none" xmlns="http://www.w3.org/2000/svg">
<g clip-path="url(#clip0_10_47)">
<path d="M270.751 116.277L272.683 115.323L272.147 113.912L272.907 113.26L272.505 112.931L273.247 110.159L274.559 109.406L276.335 106.361L275.933 105.123L279.171 99.4009L278.724 98.3803L277.262 98.6034L276.312 97.9397L277.061 97.0641L276.519 96.3447L277.267 93.6956L276.631 92.6806L277.658 92.8814L276.061 91.9556L278.384 91.8441L279.618 90.9796L281.617 87.2207L280.712 87.1371L280.176 86.0998L281.851 83.4674L280.327 82.0453L280.578 81.5434L278.105 80.7347L277.479 82.2516L276.363 82.8651L276.614 81.9226L275.754 81.7664L275.732 80.7793L276.754 80.1324L275.721 80.2551L275.676 79.7085L273.498 79.0449L273.247 77.645L274.051 77.6506L274.325 76.6635L275.296 76.842L276.111 72.9994L276.826 72.5756L277.479 75.0908L281.377 76.2173L281.298 76.8587L282.114 77.2881L285.039 76.407L287.005 77.6729L287.971 76.8085L289.322 73.4121L291.533 73.3061L291.6 73.7635L292.962 72.9771L294.637 74.1148L296.2 73.256L299.891 75.6485L303.124 76.4906L301.192 78.6545L299.813 82.2349L297.088 83.8188L296.904 85.0513L294.012 87.8788L293.107 89.8698L293.247 92.2902L292.376 93.1435L291.544 96.4785L291.829 98.8153L290.634 99.6965L290.014 102.474L287.937 105.976L287.77 108.965L288.992 111.113L287.468 114.314L286.843 117.749L287.267 119.311L286.424 120.56L288.272 123.744L288.082 124.726L286.128 125.964L286.859 126.36L286.095 126.611L286.407 127.375L285.882 127.91L284.559 127.47L284.313 127.977L285.117 128.295L283.515 129.623L282.175 129.31L280.198 129.991L279.942 129.377L278.501 129.221L279.238 127.509L277.63 127.202L277.876 126.46L276.553 124.129L274.682 123.811L275.62 121.43L275.402 119.679L273.163 118.028L271.449 117.632L270.751 116.277Z" fill="#F6D9AD" stroke="#F6D9AD"/>
<path d="M126.908 187.45L127.449 188.17L129.018 187.93L130.269 188.861L129.727 190.501L131.129 191.912L132.446 190.334L133.105 191.048L135.908 190.73L137.466 193.356L138.175 192.804L139.347 193.529L138.292 195.175L142.295 196.569L141.435 197.589L143.01 198.353L141.636 200.188L140.978 200.222L140.76 201.845L141.932 202.441L140.771 204.075L142.189 204.589L141.519 205.325L141.402 205.336L142.63 206.407L145.031 206.674L144.244 207.321L145.869 210.115L144.992 210.617L145.087 211.002L145.74 213.506L145.07 213.701L145.718 214.739L143.903 215.899L143.998 216.958L142.429 217.449L142.837 219.262L140.71 221.091L138.962 221.537L139.102 222.541L137.734 224.013L137.957 224.666L135.897 225.842L135.115 225.614L135.936 226.818L135.947 228.798L136.824 229.378L136.958 231.347L134.417 231.475L134.171 232.005L133.686 230.75L133.127 230.845L132.502 233.132L134.389 234.28L133.367 236.969L132.134 237.18L132.876 237.47L133.077 238.664L132.335 239.026L130.643 238.48L130.849 239.523L129.889 239.64L129.481 241.107L127.712 242.306L126.07 240.51L125.21 241.319L123.01 241.291L122.575 242.166L119.61 242.796L119.281 243.399L117.667 242.395L116.757 242.618L115.942 243.973L115.255 243.047L113.602 244.341L114.077 245.775L113.681 246.433L111.827 245.379L112.469 244.581L111.47 243.611L110.09 245.401L108.153 245.055L106.763 246.388L107.997 247.325L107.483 247.665L107.835 249.193L107.07 249.249L107.807 251.513L106.528 252.473L106.707 254.146L105.786 254.519L105.836 255.306L106.584 255.389L106.785 256.443L108.209 256.008L110.079 256.466L110.146 257.693L110.777 257.542L111.888 259.957L110.788 260.241L110.755 261.898L112.296 260.805L112.229 263.125L112.999 263.95L111.241 265.372L111.911 266.354L111.168 267.999L110.615 267.865L110.738 269.321L109.588 269.226L108.924 270.843L107.835 271.306L108.136 273.275L106.266 273.738L105.635 274.741L105.791 276.989L104.719 277.513L105.049 279.649L103.162 281.239L102.045 281.35L100.571 280.346L99.51 281.902L96.5788 278.534L95.3337 278.16L94.82 275.907L90.4315 276.37L86.4673 274.139L85.8196 274.647L85.3227 273.788L83.8152 273.158L83.0335 273.526L81.9559 272.739L82.8437 271.161L81.1464 271.914L80.923 274L78.9298 273.442L78.1648 272.115L79.5272 270.871L80.2809 268.925L80.1302 266.75L76.7355 265.612L76.0934 265.79L75.7808 267.012L75.0382 266.939L74.6697 265.194L72.2353 265.528L72.0455 264.446L70.9009 263.799L70.8618 263.058L73.6702 262.584L75.228 261.162L78.7902 254.335L82.2574 236.31L83.1843 225.58L84.6471 221.86L89.0412 222.602L88.723 221.214L87.5281 220.65L88.3545 220.639L85.2613 218.063L83.7482 220.745L83.4188 223.283L83.067 222.703L85.4902 195.158L86.9363 192.498L87.7124 191.929L88.2037 193.161L87.3104 193.317L87.8966 193.356L87.584 193.97L93.6642 199.413L96.3108 208.292L98.5162 210.439L96.8133 206.496L95.7301 200.021L98.505 200.255L98.6948 199.408L99.2141 201.053L102.458 201.644L102.994 204.661L103.022 204.806L103.435 206.061L103.91 205.196L104.496 205.308L105.049 206.239L105.836 206.083L106.333 206.992L107.907 207.661L109.002 207.818L110.291 206.769L111.308 207.522L111.475 206.167L112.424 205.749L111.888 205.358L112.519 204.12L113.625 203.317L115.456 204.003L116.394 202.207L118.499 201.014L118.064 198.638L118.728 196.736L119.677 196.418L119.337 195.676L119.99 196.245L121.151 194.806L122.335 194.801L122.737 193.557L124.021 192.643L124.172 189.966L125.434 189.949L126.908 187.45ZM110.554 265.205L110.42 263.214L110.202 263.108L110.291 264.307L109.616 264.58L110.174 265.116L110.554 265.205ZM109.666 265.132L109.504 265.255L109.052 266.331L109.487 267.307L110.453 266.616L109.878 265.21L109.744 265.121L109.666 265.132Z" fill="#F6D9AD" stroke="#F6D9AD"/>
<path d="M165.159 163.837L165.572 162.148L166.147 162.142L167.018 160.597L169.944 160.062L171.094 160.514L172.903 159.365L172.652 157.982L171.786 157.502L172.468 156.476L171.87 155.812L172.68 155.394L173.21 155.823L173.126 154.758L174.919 153.804L175.248 152.906L176.298 153.86L177.169 153.258L178.274 153.565L180 151.3L182.562 151.233L183.182 152.706L186.465 155.221L188.073 153.855L189.877 154.964L190.625 154L191.585 153.955L192.423 156.058L194.835 154.797L194.527 153.659L195.672 153.609L195.482 152.349L196.325 152.583L196.638 154.195L198.916 157.725L199.044 159.855L200.518 160.525L201.294 160.101L201.992 161.551L203.868 161.389L205.019 162.432L204.471 164.551L204.672 166.882L205.13 166.927L203.785 167.122L202.685 168.65L202.534 168.689L202.333 168.717L199.642 169.877L200.585 172.42L200.222 174.121L200.881 174.897L200.507 176.068L201.105 177.869L200.1 178.728L198.101 178.851L197.917 180.161L199.346 181.622L198.441 182.147L198.603 184.021L197.827 184.762L199.954 186.948L199.871 188.058L200.954 190.033L203.506 191.795L204.689 194.505L204.192 196.474L202.473 197.818L202.824 199.82L203.835 198.443L204.706 198.576L205.46 200.021L205.516 199.318L206.688 199.759L206.923 199.023L208.603 198.805L208.397 198.181L209.178 197.89L210.44 198.008L211.345 199.028L212.791 198.694L213.55 199.742L212.718 200.35L213.628 200.885L213.126 201.767L213.969 202.374L215.13 201.767L216.397 203.467L215.398 205.509L215.627 206.875L215.124 207.171L214.829 206.306L213.69 206.061L214.27 207.037V207.332L213.634 207.288L213.064 208.264L213.829 209.569L211.897 210.132L212.299 211.643L210.239 211.967L208.653 214.906L205.828 214.928L205.683 216.189L205.03 216.635L204.622 216.211L204.756 216.908L203.852 216.406L203.254 218.302L201.814 219.094L201.216 218.977L201.384 218.185L200.608 218.431L199.485 217.254L199.072 216.038L197.291 216.345L197.448 215.436L196.443 214.633L195.599 214.811L195.482 216.428L192.919 216.969L191.501 214.075L191.462 212.658L190.44 211.571L188.458 213.144L187.442 212.859L187.308 214.421L186.286 215.241L184.885 213.902L184.371 215.135H184.237L184.131 216.177L183.517 216.049L182.909 217.271L182.747 220.014L181.418 222.329L180.374 221.174L179.793 218.531L180.385 218.118L180 217.482L179.251 217.622L178.587 214.856L176.577 215.458L176.61 213.629L175.745 212.675L172.68 215.787L172.579 217.538L171.407 218.793L171.647 219.875L170.24 220.884L169.877 222.128L166.828 222.457L166.231 221.487L165.5 221.554L163.685 222.145L163.395 223.193L162.613 222.518L162.339 220.667L161.664 220.633L162.635 217.65L160.77 214.889L161.044 213.361L160.084 211.56L161.005 211.32L161.2 211.37L161.971 210.729L160.944 208.816L162.669 208.091L162.82 206.295L164.042 205.364L163.311 204.845L163.155 203.523L166.996 199.742L166.739 197.271L169.799 198.649L170.904 197.924L169.961 197.032L170.664 192.581L169.358 191.204L169.933 189.726L170.759 189.681L170.804 187.434L167.666 183.625L169.246 182.269L169.347 182.247L170.084 182.347L171.569 180.697L171.747 179.269L172.842 178.761L172.613 176.67L171.418 174.969L171.781 172.666L169.843 168.505L168.665 167.97L168.431 168.405L167.649 166.788L167.119 167.496L165.667 166.397L166.399 165.427L165.321 165.12L165.159 163.837Z" fill="#F6D9AD" stroke="#F6D9AD"/>
<path d="M226.827 114.726L225.962 112.847L225.18 112.964L224.974 113.7L224.304 113.271L225.085 112.183L224.627 111.486L223.215 111.425L223.784 110.521L223.41 109.925L221.255 109.306L218.441 109.127L217.453 109.908L217.883 111.235L212.316 111.469L211.814 112.724L210.697 112.546L210.273 111.101L209.541 111.263L209.714 112.155L208.899 111.531L208.609 111.687L207.576 112.691L206.414 112.01L206.057 112.719L205.125 112.122L202.584 112.579L203.014 110.839L202.579 110.086L202.244 110.873L201.585 110.728L201.295 110.008L202.054 109.623L200.904 108.62L200.183 106.071L198.989 105.563L199.19 104.409L198.402 104.119L198.598 104.744L197.308 105.301L196.454 103.572L195.259 103.756L196.242 102.334L195.761 102.095L196.186 100.84L195.22 100.31L195.449 99.7354L193.511 97.4433L192.646 97.1031L191.758 97.7166L191.434 96.6179L190.541 96.2777L190.284 97.237L189.614 97.3262L185.092 97.2258L184.232 98.0512L182.931 97.6887L182.188 99.5737L182.931 101.492L181.937 102.976L180.385 103.79L180.379 104.493L182.523 105.524L182.211 106.121L182.668 106.088L182.992 107.599L184.729 109.099L184.143 109.456L184.807 111.068L184.036 111.966L183.897 112.083L182.054 113.366L181.742 114.704L182.596 115.306L182.428 117.47L178.403 118.485L178.313 119.874L179.023 119.757L180.128 121.079L180.759 122.339L180.368 123.923L181.295 124.932L178.609 125.696V125.574L178.319 126.003L180.234 129.416L178.771 132.813L181.412 135.423L182.546 140.197L182.25 142.126L183.64 143.498L183.679 145.801L182.981 147.43L183.439 149.315L182.562 151.233L183.182 152.706L186.465 155.221L188.073 153.855L189.877 154.964L190.625 154L191.585 153.955L192.423 156.057L194.835 154.797L194.528 153.659L195.672 153.609L195.482 152.349L196.325 152.583L196.638 154.195L198.916 157.725L199.044 159.855L200.518 160.525L201.295 160.101L201.992 161.551L203.868 161.389L205.019 162.432L204.471 164.551L204.672 166.882L205.13 166.927L203.785 167.122L202.685 168.65L202.484 170.703L204.393 171.093L204.779 172.208L207.408 171.221L209.156 172.052L209.837 171.366L210.256 171.924L210.92 171.595L210.814 172.565L211.406 172.638L213.662 171.651L214.427 167.987L215.655 167.942L216.705 168.929L218.201 168.048L219.357 168.996L219.798 167.814L220.786 167.641L221.495 168.561L220.775 169.219L222.087 170.072L221.702 171.361L222.601 172.108L223.103 171.974L226.838 160.53L227.062 161.127L227.838 160.658L229.524 161.685L232.07 161.021L232.098 160.513L232.98 160.965L233.667 162.56L235.487 162.951L235.705 162.387L237.866 161.924L237.955 161.071L236.526 160.491L236.498 159.063L237.564 158.411L237.369 157.446L238.424 156.532L237.352 154.942L237.29 153.481L236.548 153.436L237.257 152.07L235.777 150.553L238.988 149.705L237.525 148.763L237.447 147.954L235.828 148.121L235.012 146.359L234.32 146.727L234.097 145.054L235.576 143.877L234.583 143.409L234.778 142.65L237.123 141.529L238.379 139.416L238.368 139.243L239.507 134.53L240.233 134.034L239.155 133.582H239.077L239.686 132.746L239.418 130.967L239.328 130.911L238.368 130.978H238.223L238.374 129.003L236.71 128.524L237.665 128.089L237.19 127.955L237.458 127.347L238.603 127.392L239.73 125.417L238.435 122.863L237.357 124.073L236.838 123.716L236.442 124.196L235.32 123.566L234.047 124.687L234.225 123.131L232.238 122.105L232.355 121.14L230.942 122.3L229.463 121.553L229.63 120.627L228.893 120.727L228.876 120.103L227.481 120.939L227.257 118.329L226.252 118.151L228.028 116.745L227.134 114.726H226.827Z" fill="#F6D9AD" stroke="#F6D9AD"/>
<path d="M37.0211 131.151L37.7134 131.982L39.1204 131.948L39.528 133.136L41.337 133.649L41.0243 134.597L37.2388 134.04L36.6637 132.355L37.0211 131.151ZM37.5571 79.9428L37.6743 81.1864L40.7843 79.926V81.6214L42.4928 81.5155L42.6714 82.3353L41.7558 83.0213L44.419 83.8801L44.0338 85.0959L47.0041 87.6167L46.8925 89.485L49.3994 90.8625L48.7796 91.95L49.4329 91.6767L50.3318 93.2383L50.1308 91.6767L51.4094 92.0448L53.0956 89.3288L54.9716 88.5313L54.6254 87.745L55.8147 87.4773L56.2167 88.2971L58.5672 86.2224L59.3768 86.9307L58.1373 88.6205L58.6733 88.9719L60.3093 87.7728L61.0686 89.775L60.7503 91.0633L61.4036 88.944L61.7944 90.1542L62.4588 88.6931L63.0618 89.3009L62.4253 88.1577L64.8485 87.968L65.0942 89.3344L66.021 89.9367L65.6023 90.316L66.5794 91.2863L66.289 92.9818L66.7636 91.911L67.3722 92.1173L66.2555 89.8921L67.1656 90.3773L66.8529 89.6356L65.6525 89.3846L66.0043 88.7934L65.1779 88.1186L66.1439 86.4121L69.5776 85.4026L69.7563 86.5515L68.997 87.9959L71.0907 89.1838L75.8589 88.1242L77.7907 93.1937L79.3485 94.1752L80.9118 93.8964L83.2345 91.2808L87.4946 92.5244L87.2378 95.787L88.0697 98.7707L86.7744 100.946L87.2936 103.126L87.3885 103.216L88.7341 110.053L85.5237 111.375L83.402 117.855L80.6997 117.08L80.1246 116.082L78.0252 115.836L78.1592 116.946L74.7031 118.301L73.8266 120.153L69.1868 120.186L66.9869 121.463L66.5626 120.694L64.0445 122.2L63.6648 126.204L62.2913 126.589L62.1462 127.676L61.6493 126.895L60.259 127.514L59.0139 126.773L58.5784 128.658L56.6242 128.819L56.1217 128.111L55.3233 129.098L54.4523 129.031L54.3071 127.593L55.7142 127.381L54.1229 126.494L47.032 127.793L44.8099 125.507L43.6094 125.501L42.9953 124.603L42.6435 125.055L42.1745 124.174L42.2862 125.027L39.8909 124.955L39.7848 126.862L40.9015 128.401L39.7067 128.251L38.9808 126.332L39.6173 125.802L39.2823 124.062L36.1166 120.984L34.3913 120.962L34.2685 120.108L32.2361 120.621L30.5276 118.29L27.0101 117.866L25.8823 116.874L22.9343 117.364L21.8399 115.859L22.3145 115.028L21.6445 115.323L20.8182 113.522L19.8243 114.18L20.1593 115.173L18.6128 115.574L17.122 114.593L16.1784 115.1L15.1399 117.175L11.0585 117.18L11.2762 114.029L9.81897 111.458L7.74196 109.98L6.39078 110.164L4.92236 109.172L2.49919 108.815L3.1971 108.659L3.01844 107.934L9.92505 106.467L12.5101 107.08L13.3867 105.675L12.2645 103.11L8.83629 101.894L8.02112 102.128L6.63087 104.27L6.32378 102.044L6.99379 101.537L5.1792 101.353L5.02286 100.477L6.37962 100.388L6.34053 98.7037L7.25062 98.3468L6.70904 99.663L7.18362 100.31L8.01554 99.3618L7.94296 100.421L9.12105 99.8749L10.3606 100.633L12.4711 99.8303L13.5486 100.444L14.4532 99.2782L13.8501 99.7801L11.7731 99.2336L12.5716 98.6926L11.9016 98.3747L12.2142 97.5883L10.9412 98.8432L9.93063 98.8989L10.3885 98.2855L8.97588 98.832L10.3215 96.8633L9.7743 96.4283L5.5142 98.4249L3.80569 97.8337L3.19152 98.6647L1.67843 98.7372L1.27085 97.6274L1.93527 96.8968L1.15918 95.8204L1.95202 93.9466L1.58351 92.2679L2.67227 90.8513L5.44161 90.1431L5.5477 89.1782L6.52478 89.3958L7.0217 88.035L8.02112 88.5871L10.288 88.0238L9.46721 87.4215L11.5666 86.6296L12.7279 87.0701L12.7335 88.1521L15.0673 87.5163L14.4364 87.2765L15.2739 86.2894L17.2783 85.9938L18.2219 86.663L18.3615 85.6257L19.4168 84.8728L19.5619 85.4249L20.2766 84.8784L20.2375 86.7411L21.1699 87.1371L21.3095 85.8767L21.3542 86.7411L23.1464 87.2151L22.9399 86.2001L23.487 85.3245L23.7383 85.8042L23.6713 85.1572L26.999 86.3173L27.8309 85.9771L27.4903 87.2765L28.311 86.3173L29.2658 86.8749L29.2267 84.9732L30.0363 84.2482L29.2044 83.8243L29.612 82.4914L29.1485 82.1066L29.8967 82.6141L31.0636 80.941L31.3651 81.6047L31.6164 81.0024L32.1077 81.772L32.828 81.588L32.5321 82.3855L33.5203 82.313L35.3293 80.9745L36.647 81.1139L37.5571 79.9428Z" fill="#F6D9AD" stroke="#F6D9AD"/>
<path d="M147.108 77.4053L148.543 79.162L148.141 79.8703L149.358 80.9522L148.967 83.7017L150.017 84.2036L148.861 85.7429L149.676 86.2336L149.442 87.0646L150.922 88.8437L152.055 88.8325L151.915 90.1375L153.724 90.9574L153.462 92.3628L154.059 93.9857L155.639 94.9003L157.041 94.3203L156.985 96.0938L158.135 96.2499L158.381 97.5717L157.677 99.4121L158.018 100.171L162.446 99.808L162.172 99.2001L162.859 99.3619L163.361 98.2242L164.349 98.648L164.338 99.808L165.578 99.3284L165.701 99.0998L166.253 98.609L166.979 99.4846L168.029 99.2113L168.481 101.152L170.647 102.323L170.659 104.353L169.86 104.437L168.945 105.848L171.625 105.257L175.014 105.865L176.142 105.106L175.728 104.364L176.343 104.827L177.18 104.298L177.655 105.642L178.738 104.733L180.379 104.493L182.523 105.524L182.211 106.121L182.668 106.088L182.992 107.599L184.729 109.099L184.142 109.456L184.807 111.068L184.036 111.966L183.897 112.083L182.054 113.366L181.742 114.704L182.596 115.306L182.428 117.47L178.403 118.485L178.313 119.874L179.023 119.757L180.128 121.079L180.759 122.339L180.368 123.923L181.295 124.932L178.609 125.696V125.574L178.319 126.003L180.234 129.416L178.771 132.813L181.412 135.423L182.546 140.197L182.25 142.126L183.64 143.498L183.679 145.801L182.981 147.43L183.439 149.315L182.562 151.233L180 151.3L178.274 153.565L177.169 153.258L176.298 153.86L175.248 152.907L174.919 153.804L173.127 154.758L173.21 155.823L172.68 155.394L171.87 155.812L172.468 156.476L171.787 157.502L172.652 157.982L172.903 159.365L171.094 160.514L169.944 160.062L167.018 160.597L166.147 162.142L165.572 162.148L165.159 163.837L163.216 163.547L160.709 164.166L158.169 163.057L154.93 163.637L153.629 162.605L152.809 162.817L153.099 163.648L152.379 164.825L151.374 163.882L150.05 164.897L149.609 163.782L148.113 164.746L147.672 163.603L145.109 166.302L143.685 164.507L142.742 164.668L142.519 165.455L140.548 165.644L140.33 164.83L139.61 165.003L140.034 164.44L140.391 163.369L138.973 162.873L138.822 160.91L137.633 159.922L135.936 159.939L135.813 158.907L133.407 157.759L132.988 156.81L133.803 154.635L133.462 153.531L131.201 151.434L130.766 149.393L128.638 147.586L128.342 145.199L126.628 144.056L125.473 144.106L126.182 145.762L124.032 145.707L122.48 146.699L120.783 146.025L119.817 146.66L119.068 144.63L119.565 144.363L119.342 142.572L118.538 142.862L118.002 141.881L116.455 142.305L116.958 141.2L116.534 140.397L116.076 140.877L115.445 140.665L115.568 140.063L114.177 140.264L113.569 138.741L114.099 134.748L116.534 131.34L115.852 130.738L117.444 127.297L117.55 126.371L116.807 125.964L117.728 124.001L117.701 123.711L121.212 124.904L121.659 124.62L120.766 123.215L121.201 122.395L122.731 123.231L123.072 122.35L126.131 121.424L126.662 120.699L126.126 120.861L125.891 119.852L126.84 118.686L128.577 118.167L128.365 117.61L130.129 115.931L129.939 113.578L130.615 113.193L131.112 114.001L131.207 112.496L131.983 112.222L131.279 110.639L131.826 109.133L130.782 108.876L130.699 107.722L131.843 107.638L131.893 106.874L131.156 106.712L131.799 106.562L132.027 105.541L133.529 105.352L130.793 103.433L131.547 102.764L130.57 101.124L130.989 100.148L129.811 99.7802L130.151 98.9882L133.49 97.237L134.925 94.8836L133.998 93.6232L134.707 91.9835L131.29 88.8994L131.212 86.875L132.329 86.256L132.625 85.2856L135.232 84.9398H135.712L136.958 83.7854L138.164 84.198L138.309 82.6978L140.648 83.7965L143.194 83.685L144.121 82.9878L143.881 81.1196L146.159 79.8034L145.874 77.9909L147.108 77.4053Z" fill="#F6D9AD" stroke="#F6D9AD"/>
<path d="M224.382 34.2003L225.789 34.8305L225.124 35.444L225.225 36.5873L224.739 36.0965L224.019 37.4126L224.51 38.383L223.315 40.8704L225.604 42.9952L224.65 44.5289L225.292 46.2131L224.756 47.1668L228.089 46.9158L230.384 48.2487L232.053 50.7305L234.471 50.6413L235.889 52.1359L235.481 53.6584L236.269 52.9557L237.38 53.4688L234.287 56.129L233.65 55.1475L231.997 55.3761L231.528 54.389L230.814 54.3332L230.294 56.1067L230.255 56.3186L229.574 57.5902L230.78 59.1071L230.875 60.4735L229.987 61.0702L230.546 61.9347L229.451 62.3195L228.781 64.3551L229.507 64.9239L229.373 65.6211L227.067 66.9317L228.016 67.9244L226.794 68.7776L228.301 72.8767L227.397 74.5387L228.402 74.0423L229.044 74.4662L228.994 75.5369L228.072 75.866L229.116 76.2173L228.58 77.4331L226.771 78.1804L226.671 78.2808L226.174 79.926L226.755 80.8295L225.671 82.3688L228.441 84.3542L228.19 88.7767L229.541 88.1856L229.865 89.4571L230.976 89.4738L233.125 91.8162L235.816 92.4687L239.071 95.4747L237.318 96.5845L238.441 96.9972L238.089 98.6647L239.306 97.8003L240.356 98.0903L241.846 100.656L242.371 100.037L243.348 100.868L243.064 101.777L244.13 102.044L245.113 103.299L243.974 103.946L243.745 106.406L242.756 107.198L244.348 107.499L244.94 108.631L246.207 108.988L246.458 111.776L247.837 110.979L248.714 112.691L248.703 113.578L247.921 113.36L247.257 114.576L247.396 115.223L245.839 114.972L245.397 116.327L244.225 116.299L243.879 117.732L244.638 118.842L244.219 120.973L242.042 121.402L241.361 120.192L240.389 121.374L237.72 121.324L236.838 123.717L236.442 124.196L235.319 123.566L234.046 124.687L234.225 123.131L232.237 122.105L232.355 121.14L230.942 122.3L229.463 121.553L229.63 120.627L228.893 120.727L228.876 120.103L227.48 120.939L227.257 118.329L226.252 118.151L228.028 116.745L227.134 114.726H226.827L225.962 112.847L225.18 112.964L224.974 113.7L224.304 113.271L225.085 112.183L224.627 111.486L223.215 111.425L223.784 110.521L223.41 109.925L221.255 109.306L218.441 109.127L217.453 109.908L217.883 111.235L212.316 111.469L211.814 112.724L210.697 112.546L210.273 111.101L209.541 111.263L209.714 112.155L208.899 111.531L208.609 111.687L207.576 112.691L206.414 112.01L206.057 112.719L205.125 112.122L202.584 112.579L203.014 110.839L202.579 110.086L202.244 110.873L201.585 110.728L201.294 110.008L202.054 109.624L200.904 108.62L200.183 106.071L198.989 105.563L199.19 104.409L198.402 104.119L198.598 104.744L197.308 105.301L196.454 103.572L195.259 103.757L196.242 102.334L195.761 102.095L196.186 100.84L195.22 100.31L195.449 99.7355L193.511 97.4434L192.646 97.1032L191.758 97.7166L191.434 96.618L190.703 93.4893L191.965 93.1156L191.239 91.8106L192.964 91.331L192.59 90.3271L193.729 89.6523L193.444 89.1336L194.79 88.7209L193.88 88.1521L194.204 87.6836L192.277 88.074L192.674 84.4824L190.965 83.7742L192.099 82.6588L191.172 82.0174L193.115 81.8334L193.07 80.4949L194.064 78.3924L195.047 78.3031L195.125 77.4331L195.806 77.3104L195.505 76.7025L197.537 74.8064L196.912 73.7858L195.393 74.0033L195.432 73.1835L196.621 72.5867L195.756 71.0921L196.253 70.0046L198.173 70.2946L199.178 69.709L199.195 68.9226L198.402 69.0732L198.034 68.0136L197.649 68.3594L196.99 67.8017L197.554 67.0265L196.789 64.238L199.865 62.721L201.568 63.1281L201.669 61.8733L203.249 60.9308L204.081 61.9737L205.867 62.5816L205.901 59.8098L206.61 59.5533L205.979 57.3727L206.861 56.7425L206.174 56.0175L206.828 55.0805L205.566 53.268L205.973 52.7048L207.687 52.8721L207.95 51.2659L209.312 50.5186L210.814 48.4439L209.798 47.6241L210.892 44.462L210.948 43.1848L210.066 42.8335L210.401 41.2162L212.204 40.8425L215.365 41.9802L218.876 40.2123L221.071 39.8944L220.775 37.3569L221.289 36.3196L224.119 33.6816L224.382 34.2003Z" fill="#F6D9AD" stroke="#F6D9AD"/>
<path d="M315.709 318.811L316.384 317.316L317.964 317.154L318.964 315.894L316.557 315.074L315.848 315.52L315.692 314.243L314.118 314.851L314.062 314.305L313.001 314.265L314.665 313.15L314.235 312.353L315.619 312.063L315.893 311.416L315.134 311.025L316.005 310.858L315.776 309.854L316.345 309.464L315.072 308.287L314.397 309.068L311.817 309.508L312.174 308.231L311.465 307.294L312.761 307.188L313.034 305.827L315.056 304.673L313.956 302.727L313.012 303.095L311.918 302.03L311.192 302.236L311.292 301.505L310.65 301.689L311.482 300.987L310.728 300.886L311.192 299.821L310.243 298.828L313.833 297.914L313.034 296.798L311.739 296.698L311.985 295.32L310.544 295.817L310.354 294.529L311.845 294.177L311.767 293.246L312.917 293.279L312.761 292.432L313.492 291.601L312.772 291.299L313.185 290.139L314.43 289.838L314.106 288.455L314.559 287.981L314.598 288.712L315.24 288.394L316.021 288.952L316.329 287.423L317.83 287.239L319.344 286.04L321.264 286.208L322.314 285.577L322.252 284.473L323.805 283.369L326.055 283.252L327.836 285.092L328.902 283.23L328.846 281.378L328.081 280.179L328.796 279.153L328.372 278.076L329.282 277.318L328.791 275.115L330.717 274.568L331.655 275.355L332.336 281.01L331.247 285.148L333.257 289.13L333.86 300.145L333.643 303.006L330.46 307.662L329.874 317.177L328.852 317.589L329.142 318.063L328.065 317.701L327.384 318.694L327.59 319.352L328.299 318.426L329.483 318.755L328.885 319.842L327.272 320.724L327.384 322.765L326.099 323.434L325.776 324.332L327.082 323.875L326.942 324.326L326.049 325.782L325.094 325.854L324.564 324.99L323.09 324.934L323.721 323.596L322.548 323.395L322.766 322.263L321.839 323.016L320.89 321.99L320.538 322.486L319.076 322.017L318.054 320.936L317.278 321.136L317.535 320.238L315.994 319.965L316.39 319.374L315.709 318.811Z" fill="#F6D9AD" stroke="#F6D9AD"/>
<path d="M248.714 112.691L249.836 110.917L250.467 111.235L249.719 112.273L250.221 112.351L251.455 111.642L252.315 110.019L254.526 109.473L254.582 109.512L254.839 111.297L256.123 112.306V112.484L260.411 111.497L261.477 112.15L262.471 114.085L265.369 112.005L266.363 113.455L270.751 116.277L271.449 117.632L273.163 118.028L275.402 119.679L275.62 121.43L274.682 123.811L276.553 124.129L277.876 126.46L277.63 127.202L274.163 127.509L274.598 128.892L273.169 129.6L271.751 132.333L274.933 131.647L275.687 132.01L275.843 132.98L274.794 133.292L274.476 134.313L273.236 134.569L273.521 136.086L270.88 138.496L271.287 138.735L270.824 139.271L267.669 141.541L268.049 142.595L265.777 144.558L262.89 145.188L261.383 146.75L262.131 148.071L261.36 150.659L261.857 151.914L253.934 158.584L255.006 159.638L253.058 162.404L252.874 163.966L248.351 169.024L245.007 169.152L244.739 167.535L243.181 167.039L243.097 166.353L240.685 168.896L239.172 169.035L239.211 167.323L238.323 167.329L238.027 166.241L237.553 167.49L236.57 165.494L236.933 165.092L235.13 164.06L235.487 162.951L235.705 162.387L237.865 161.924L237.955 161.071L236.525 160.491L236.498 159.063L237.564 158.411L237.369 157.446L238.424 156.532L237.352 154.942L237.29 153.481L236.548 153.436L237.257 152.07L235.777 150.553L238.988 149.705L237.525 148.763L237.447 147.954L235.828 148.121L235.012 146.359L234.32 146.727L234.097 145.054L235.576 143.877L234.582 143.409L234.778 142.65L237.123 141.529L238.379 139.416L238.368 139.243L239.507 134.53L240.233 134.034L239.155 133.582H239.077L239.686 132.746L239.418 130.967L239.328 130.911L238.368 130.978H238.223L238.374 129.004L236.71 128.524L237.664 128.089L237.19 127.955L237.458 127.347L238.602 127.392L239.73 125.418L238.435 122.863L237.357 124.073L236.838 123.717L237.72 121.324L240.389 121.374L241.361 120.192L242.042 121.402L244.219 120.973L244.638 118.842L243.879 117.732L244.225 116.299L245.397 116.327L245.838 114.972L247.396 115.223L247.257 114.576L247.921 113.36L248.703 113.578L248.714 112.691Z" fill="#F6D9AD" stroke="#F6D9AD"/>
<path d="M151.792 67.1492L152.63 67.4169L152.34 68.4542L152.552 68.4486L152.971 69.1346L154.104 68.7888L155.952 69.5863L158.705 69.1234L160.536 67.9076L162.613 69.5584L163.724 69.0007L164.059 69.9934L165.276 69.6923L165.929 68.7498L166.946 70.105L167.348 69.6923L168.855 70.1552L168.721 70.6125L169.319 70.3504L170.335 71.1646L170.022 71.5661L170.994 71.7948L171.463 70.9248L172.183 72.4975L173.327 71.4881L175.672 73.1612L177.392 71.8952L178.403 72.8265L181.116 72.0792L181.552 72.7987L182.049 72.0792L183.383 72.3023L183.461 71.1813L185.047 71.5661L186.253 73.5404L185.711 74.8733L187.654 76.2731L187.961 77.4554L188.894 77.1097L189.452 78.5374L190.345 77.8235L190.703 79.8034L192.155 80.2105L192.512 81.008L193.07 80.4949L193.115 81.8334L191.172 82.0174L192.099 82.6588L190.965 83.7742L192.674 84.4825L192.277 88.074L194.204 87.6836L193.88 88.1521L194.79 88.721L193.444 89.1337L193.729 89.6523L192.59 90.3271L192.964 91.331L191.239 91.8106L191.965 93.1156L190.703 93.4893L191.434 96.618L190.541 96.2778L190.284 97.237L189.614 97.3263L185.092 97.2259L184.232 98.0513L182.931 97.6888L182.188 99.5738L182.931 101.492L181.937 102.976L180.385 103.79L180.379 104.493L178.738 104.732L177.655 105.642L177.18 104.297L176.342 104.827L175.728 104.364L176.141 105.106L175.014 105.865L171.625 105.257L168.945 105.848L169.86 104.437L170.659 104.353L170.647 102.323L168.481 101.152L168.029 99.2113L166.979 99.4846L166.253 98.609L165.701 99.0997L165.578 99.3284L164.338 99.808L164.349 98.648L163.361 98.2242L162.859 99.3619L162.172 99.2001L162.445 99.808L158.018 100.171L157.677 99.4121L158.381 97.5716L158.135 96.2499L156.985 96.0937L157.041 94.3203L155.639 94.9003L154.059 93.9856L153.462 92.3627L153.724 90.9573L151.915 90.1375L152.055 88.8325L150.921 88.8437L149.442 87.0646L149.676 86.2336L148.861 85.7428L150.017 84.2036L148.967 83.7017L149.358 80.9522L148.141 79.8703L148.543 79.162L147.108 77.4053L146.907 76.4627L147.521 76.0612L146.393 76.156L146.583 74.812L145.88 73.4233L146.812 73.5237L147.303 72.2967L147.555 72.8656H147.677L149.911 72.2967L151.792 67.1492Z" fill="#F6D9AD" stroke="#F6D9AD"/>
<path d="M181.418 222.329L182.747 220.02L182.908 217.276L183.517 216.055L184.131 216.183L184.237 215.14H184.371L184.885 213.908L186.281 215.246L187.308 214.426L187.442 212.87L188.458 213.155L190.435 211.582L191.457 212.67L191.496 214.092L192.914 216.981L195.477 216.445L195.588 214.828L196.431 214.649L197.436 215.452L197.286 216.356L199.067 216.055L199.474 217.271L200.597 218.447L201.373 218.202L201.205 218.994L201.803 219.111L202.768 223.969L203.919 224.733L204.745 227.923L206.615 230.081L205.957 230.533L206.135 232.864L208.034 232.295L210.987 234.604L212.59 232.239L214.114 231.977L214.198 233.784L215.18 234.018L215.532 232.239L216.738 232.066L220.077 234.425L220.624 236.199L221.417 236.238L221.746 237.102L221.724 240.504L223.254 241.012L224.599 243.471L223.89 243.505L223.896 244.308L219.898 247.397L220.496 248.095L219.228 251.904L219.58 253.181L217.542 252.489L216.275 252.807L214.896 255.144L215.956 255.512L215.716 256.248L212.746 257.966L212.283 257.347L212.511 258.211L210.613 259.131L210.367 260.386L208.156 259.566L207.788 258.825L208.251 258.105L207.509 257.442L204.382 257.676L198.642 262.294L196.772 262.835L193.589 266.515L193.701 265.963L193.55 266.476L189.558 265.824L189.765 266.493L186.041 269.516L183.763 273.191L182.886 276.074L183.277 277.541L182.54 284.273L182.964 289.403L185.136 290.156L184.879 291.21L185.901 292.694L183.852 292.984L182.797 291.495L181.088 291.735L180.625 291.21L179.944 292.019L178.129 291.941L176.711 293.408L175.672 293.028L174.31 293.636L173.78 294.211L174.243 295.644L172.038 295.092L170.96 295.889L169.843 295.661L168.704 293.999L164.623 292.605L163.339 293.302L162.272 293.056L160.648 294.969L159.051 295.41L157.822 294.345L157.141 292.136L155.902 292.253L154.562 291.065L152.373 290.814L152.591 288.913L153.708 288.333L155.623 288.137L156.354 287.039L158.046 286.983L158.61 285.594L162.457 285.533L162.758 284.97L160.631 282.761L158.76 283.324L156.656 282.555L156.946 282.003L155.394 280.502L155.768 279.588L158.347 279.019L158.202 277.156L157.136 276.755L157.683 276.063L158.816 276.113L157.956 274.669L158.325 273.894L157.309 273.325L157.811 272.773L157.554 271.379L156.695 270.732L156.108 271.295L155.209 269.895L155.204 270.336L153.646 270.157L151.893 268.925L152.261 267.854L151.441 266.315L152.518 265.021L152.206 264.151L154.322 264.162L154.043 262.533L155.215 260.944L156.198 262.422L156.734 261.63L156.868 261.641L158.375 262.015L159.503 261.156L160.318 262.422L162.585 261.764L163.612 262.801L163.769 261.284L164.617 260.386L167.822 261.769L168.643 261.15L172.713 261.301L174.115 260.057L174.26 258.596L172.898 256.984L173.595 254.001L175.321 254.486L176.136 255.462L179.637 254.168L180.011 253.053L181.462 252.445L183.221 252.958L183.288 248.424L186.761 249.093L187.593 248.585L187.269 247.526L187.95 246.511L189.782 246.527L190.117 244.76L192.043 243.17L192.199 242.322L190.82 241.285L189.955 241.547L189.452 240.644L188.626 240.967L187.894 240.164L189.273 239.679L189.575 238.067L190.452 237.705L190.217 236.701L186.56 237.03L187.163 235.725L185.555 235.262L185.348 234.28L184.623 234.693L185.393 233.221L184.589 231.442L185.17 229.021L183.361 226.935L183.802 225.112L181.418 222.329ZM157.448 291.919L158.688 292.248L158.13 291.004L157.448 291.919Z" fill="#F6D9AD" stroke="#F6D9AD"/>
<path d="M139.61 165.003L140.33 164.83L140.548 165.644L142.519 165.455L142.742 164.668L143.685 164.507L145.109 166.302L147.672 163.603L148.113 164.746L149.609 163.782L150.05 164.897L151.374 163.882L152.379 164.824L153.099 163.648L152.809 162.817L153.629 162.605L154.93 163.637L158.169 163.057L160.709 164.166L163.216 163.547L165.159 163.837L165.321 165.12L166.399 165.427L165.667 166.397L167.119 167.496L167.649 166.788L168.431 168.405L168.665 167.97L169.843 168.505L171.781 172.666L171.418 174.969L172.613 176.67L172.842 178.761L171.747 179.269L171.569 180.697L170.084 182.347L169.347 182.247L169.246 182.269L167.666 183.625L170.804 187.434L170.759 189.681L169.933 189.726L169.358 191.204L170.664 192.581L169.961 197.032L170.904 197.924L169.799 198.649L166.739 197.271L166.996 199.742L163.155 203.523L163.311 204.845L164.042 205.364L162.82 206.295L162.669 208.091L160.944 208.816L161.971 210.729L161.2 211.37L161.005 211.32L160.084 211.56L158.336 211.615L157.46 212.329L156.538 211.504L154.082 213.294L152.887 212.82L150.475 209.842L148.141 209.803L147.962 209.234L145.874 210.115L144.249 207.321L145.037 206.674L142.636 206.407L141.402 205.341L141.519 205.325L142.195 204.588L140.771 204.075L141.932 202.447L140.76 201.845L140.978 200.222L141.636 200.188L143.01 198.353L141.435 197.589L142.29 196.569L138.286 195.174L139.342 193.529L138.169 192.804L137.466 193.356L135.902 190.73L133.099 191.048L132.441 190.334L131.128 191.912L129.721 190.501L130.263 188.861L129.012 187.93L127.443 188.17L126.907 187.45L128.867 185.727L128.795 184.338L130.436 184.757L131.452 181.734L131.106 180.117L132.731 180.412L134.238 178.834L133.725 177.49L132.787 176.748L132.184 177.211L131.168 176.146L131.642 174.623L131.073 173.725L131.932 173.257L130.682 170.758L132.027 170.134L133.222 168.221L135.612 168.5L136.606 165.745L138.493 166.247L139.129 164.841L139.61 165.003Z" fill="#F6D9AD"/>
<path d="M237.905 54.032L238.759 55.2088L239.161 57.6905L241.104 56.5473L242.377 57.3559L243.091 55.8334L245.492 56.2349L246.123 55.3705L247.608 56.1011L248.34 57.6626L250.601 57.8523L250.958 59.3636L252.349 59.4863L253.075 58.7948L253.7 59.2744L254.325 57.869L256.916 57.1273L259.83 59.0457L261.316 58.4602L264.28 60.4121L263.889 61.0869L265.308 62.3864L264.526 63.0444L266.91 65.4202L266.698 66.1676L267.362 66.491L267.513 67.6845L268.166 67.6008L267.887 68.6939L268.512 69.5082L270.757 69.8986L271.371 68.9226L270.818 67.796L273.141 67.4391L275.347 68.5768L275.749 71.2872L276.854 69.8205L278.194 71.0697L280.254 70.7351L281.365 71.2649L282.114 70.2555L282.957 70.2666L283.012 69.2739L284.861 68.8445L284.654 69.5137L286.005 69.3632L286.798 71.8784L289.193 72.7317L289.322 73.4121L287.97 76.8084L287.005 77.6729L285.039 76.4069L282.114 77.2881L281.298 76.8586L281.377 76.2173L277.479 75.0907L276.826 72.5755L276.111 72.9994L275.296 76.8419L274.325 76.6634L274.051 77.6506L273.247 77.645L273.498 79.0448L275.676 79.7085L275.721 80.255L276.754 80.1323L275.732 80.7793L275.754 81.7664L276.614 81.9226L276.363 82.8651L277.479 82.2516L278.105 80.7347L280.578 81.5433L280.327 82.0452L281.851 83.4674L280.176 86.0997L280.712 87.137L281.617 87.2207L279.618 90.9796L278.384 91.844L276.061 91.9556L277.658 92.8813L276.631 92.6806L277.267 93.6956L276.519 96.3446L277.061 97.0641L276.312 97.9397L277.262 98.6033L278.724 98.3802L279.171 99.4008L275.933 105.123L276.335 106.361L274.559 109.406L273.247 110.159L272.505 112.931L272.907 113.26L272.147 113.912L272.683 115.323L270.751 116.277L266.363 113.455L265.369 112.005L262.471 114.085L261.477 112.15L260.411 111.497L256.123 112.484V112.306L254.839 111.297L254.582 109.512L254.526 109.473L252.315 110.019L251.455 111.642L250.221 112.351L249.719 112.273L250.467 111.235L249.836 110.917L248.714 112.691L247.837 110.979L246.458 111.776L246.207 108.988L244.94 108.631L244.348 107.499L242.756 107.197L243.745 106.406L243.974 103.946L245.113 103.299L244.13 102.044L243.064 101.777L243.348 100.868L242.371 100.037L241.846 100.656L240.356 98.0902L239.306 97.8002L238.089 98.6647L238.441 96.9972L237.318 96.5845L239.071 95.4746L235.816 92.4686L233.125 91.8161L230.976 89.4738L229.864 89.4571L229.541 88.1855L228.189 88.7767L228.441 84.3541L225.671 82.3687L226.755 80.8295L226.174 79.926L226.671 78.2808L226.771 78.1804L228.58 77.4331L229.116 76.2173L228.072 75.8659L228.993 75.5369L229.044 74.4661L228.402 74.0423L227.397 74.5386L228.301 72.8767L226.794 68.7776L228.016 67.9243L227.067 66.9316L229.373 65.621L229.507 64.9239L228.781 64.355L229.451 62.3194L230.546 61.9346L229.987 61.0702L230.875 60.4735L230.78 59.1071L229.574 57.5901L230.255 56.3186L230.294 56.1067L230.814 54.3332L231.528 54.389L231.997 55.3761L233.65 55.1474L234.287 56.129L237.38 53.4688L237.905 54.032Z" fill="#F6D9AD" stroke="#F6D9AD"/>
<path d="M109.739 265.121L109.873 265.21L110.448 266.616L109.482 267.307L109.046 266.331L109.499 265.255L109.66 265.132L109.739 265.121ZM110.42 263.214L110.554 265.205L110.169 265.11L109.61 264.575L110.286 264.301L110.196 263.102L110.42 263.214ZM145.874 210.115L147.962 209.234L148.141 209.803L150.475 209.842L152.887 212.826L154.082 213.3L156.538 211.51L157.46 212.335L158.342 211.621L160.084 211.565L161.044 213.367L160.77 214.895L162.635 217.65L161.664 220.639L162.345 220.667L162.619 222.519L163.395 223.193L163.691 222.145L165.505 221.554L166.242 221.487L166.834 222.457L169.883 222.128L170.245 220.89L171.652 219.881L171.418 218.799L172.59 217.538L172.685 215.793L175.756 212.681L176.622 213.634L176.588 215.464L178.598 214.861L179.263 217.628L180.011 217.483L180.396 218.118L179.804 218.531L180.39 221.174L181.429 222.323L183.835 225.084L183.394 226.908L185.203 228.993L184.623 231.414L185.427 233.193L184.656 234.665L185.382 234.253L185.589 235.234L187.197 235.697L186.594 237.002L190.251 236.673L190.485 237.677L189.609 238.039L189.307 239.651L187.928 240.136L188.659 240.939L189.486 240.616L189.988 241.519L190.854 241.257L192.233 242.295L192.076 243.142L190.15 244.732L189.815 246.5L187.984 246.483L187.303 247.498L187.626 248.557L186.795 249.065L183.322 248.396L183.255 252.93L181.496 252.417L180.044 253.025L179.67 254.14L176.169 255.434L175.354 254.458L173.629 253.973L172.931 256.956L174.293 258.568L174.148 260.029L172.747 261.273L168.677 261.122L167.856 261.741L164.651 260.358L163.802 261.256L163.646 262.773L162.619 261.736L160.352 262.394L159.537 261.128L158.409 261.987L156.901 261.613L156.767 261.602L156.231 262.394L155.249 260.916L154.076 262.506L154.355 264.134L152.239 264.123L152.552 264.993L151.474 266.287L152.295 267.826L151.926 268.897L153.68 270.129L155.237 270.308L155.243 269.867L156.142 271.267L156.728 270.704L157.588 271.351L157.845 272.745L157.342 273.297L158.358 273.866L157.99 274.641L158.85 276.085L157.716 276.035L157.169 276.727L158.236 277.128L158.381 278.991L155.801 279.56L155.427 280.475L156.979 281.975L156.689 282.527L158.794 283.297L160.664 282.733L162.792 284.942L162.49 285.505L158.643 285.566L158.079 286.955L156.388 287.011L155.656 288.109L153.741 288.305L153.875 287.875L152.328 287.803L152.557 286.966L149.392 286.659L148.264 285.745L146.628 285.873L146.578 287.044L145.645 287.401L143.775 283.754L140.866 283.486L139.448 284.088L137.359 281.584L135.148 281.64L134.601 281.038L133.808 281.557L128.756 279.276L127.611 279.978L127.868 281.049L127.282 281.735L127.784 281.975L127.215 282.616L128.046 283.508L127.991 284.618L126.17 284.161L122.117 284.629L120.671 283.587L119.147 285.176L118.343 283.849L116.411 283.185L112.279 284.819L111.012 284.59L110.738 283.798L109.727 283.536L108.616 281.272L107.98 281.618L105.082 279.655L104.753 277.519L105.825 276.995L105.668 274.747L106.299 273.743L108.17 273.28L107.868 271.312L108.957 270.849L109.621 269.231L110.772 269.326L110.649 267.871L111.201 268.004L111.944 266.359L111.274 265.378L113.033 263.956L112.262 263.13L112.329 260.81L110.788 261.903L110.822 260.247L111.922 259.962L110.811 257.548L110.18 257.698L110.113 256.471L108.242 256.014L106.819 256.449L106.618 255.395L105.869 255.311L105.819 254.525L106.74 254.151L106.562 252.478L107.84 251.519L107.103 249.255L107.868 249.199L107.516 247.671L108.03 247.331L106.796 246.394L108.186 245.061L110.124 245.406L111.503 243.616L112.502 244.587L111.86 245.384L113.714 246.438L114.11 245.78L113.636 244.347L115.288 243.053L115.975 243.979L116.79 242.624L117.7 242.4L119.314 243.404L119.643 242.802L122.608 242.172L123.044 241.296L125.244 241.324L126.103 240.515L127.745 242.311L129.515 241.112L129.922 239.645L130.883 239.528L130.676 238.485L132.368 239.032L133.111 238.669L132.91 237.476L132.167 237.186L133.401 236.974L134.423 234.286L132.535 233.137L133.161 230.851L133.719 230.756L134.205 232.011L134.451 231.481L136.991 231.352L136.857 229.384L135.98 228.804L135.969 226.824L135.148 225.619L135.93 225.848L137.99 224.671L137.767 224.019L139.135 222.546L138.995 221.543L140.743 221.096L142.876 219.262L142.468 217.449L144.037 216.958L143.942 215.899L145.757 214.739L145.109 213.701L145.779 213.506L145.126 211.002L145.031 210.617L145.874 210.115Z" fill="#F6D9AD" stroke="#F6D9AD"/>
<path d="M171.68 1.43552L171.976 3.36516L173.322 5.38961L172.356 6.40462L172.574 8.97004L173.4 10.3308L175.433 10.4089L177.085 13.5543L178.297 13.6101L179.681 14.7311L180.748 12.5505L185.349 11.1618L186.275 13.5264L187.883 14.3853L187.386 15.9747L188.598 20.8323L190.558 22.0369L192.21 21.4792L192.847 20.5088L193.869 20.8602L193.444 22.1763L195.946 21.8585L197.152 23.2862L197.113 26.426L198.268 28.7572L199.184 27.0897L201.563 27.0562L202.763 27.9653L205.605 26.8052L206.805 28.5453L207.749 28.813L208.229 30.4582L208.916 30.447L208.804 29.3316L209.876 29.9507L210.172 30.6478L208.542 32.0867L208.642 33.8824L208.028 34.9477L209.692 34.97L210.39 37.2621L208.765 38.0206L208.341 40.48L207.045 40.8593L204.572 39.9892L204.611 38.1656L202.417 39.4148L202.06 38.3998L198.408 37.2398L197.23 37.8142L197.129 38.6787L196.074 38.8404L194.449 37.7752L193.221 39.0914L190.273 38.4221L189.48 39.1694L188.285 39.2252L187.844 38.5727L185.845 39.3256L184.031 37.8421L182.177 37.6135L181.172 38.2437L179.994 37.976L178.688 39.0021L178.542 36.9554L175.98 38.1656L176.75 35.7396L175.566 35.2153L175.047 35.1763L174.964 36.8271L171.999 35.6727L172.043 34.7078L171.457 34.613L171.01 35.6504L170.581 34.6744L169.804 34.7692L168.358 36.604L167.37 35.8065L167.644 34.2226L170.123 32.7503L169.112 31.4565L168.068 31.3059L166.963 32.3209L166.354 31.1497L166.231 32.0867L164.908 31.5178L162.111 32.9065L161.647 32.2094L160.62 32.5328L160.413 30.6757L157.393 29.3874L157.058 28.9691L157.834 28.1716L157.415 27.8258L156.516 28.5341L154.115 26.7551L150.877 27.8705L150.335 27.0674L148.303 25.3162L149.051 20.3192L150.173 21.2283L148.811 19.1927L148.493 13.4874L148.588 12.952L148.8 13.8276L149.219 13.2532L149.676 10.6487L148.923 8.18368L150.782 7.63714L152.719 5.50115L155.639 4.55306L154.958 4.42479L160.843 2.90785L161.139 3.28709L162.367 2.02669L162.111 2.68477L162.825 3.36516L163.211 2.02669L163.4 2.45611L166.84 1.27937L167.482 1.74226L171.278 0.186279L171.68 1.43552Z" fill="#F6D9AD" stroke="#F6D9AD"/>
<path d="M67.4783 49.5481L68.5838 50.2898L69.3989 49.866L70.0354 50.842L74.8204 51.9741L74.7087 52.7995L74.999 52.0131L77.8075 51.6172L78.1313 50.591L82.9553 50.6189L83.7928 53.8033L83.1898 53.5914L82.7822 55.0749L82.7934 54.5785L82.196 54.6901L81.928 55.9226L85.2389 60.9196L84.4293 63.4961L85.5181 62.5034L86.4226 63.1671L87.3773 61.5386L89.9122 61.2709L94.7809 62.9886L103.156 63.5519L105.819 64.9852L106.651 64.6896L107.131 65.4091L112.262 63.8475L115.238 61.1371L117.477 60.1946L114.864 60.083L118.907 60.0217L119.85 63.3121L119.169 64.1654L119.817 64.8514L119.493 65.3142L120.727 64.829L121.212 65.2417V65.9946L119.75 66.5579L121.464 67.8908L121.246 69.8874L122.357 70.3391L121.603 71.5549L122.044 72.6424L120.833 73.4399L122.698 74.7449L121.218 78.3923L122.82 79.5635L125.087 79.7196L125.78 79.0671L125.986 79.8033L126.589 79.5969L126.466 80.4056L127.075 80.4167L126.45 81.1975L129.867 83.4729L130.235 84.5102L129.169 85.5866L130.135 85.9937L130.179 86.8972L131.218 86.8805L131.302 88.9049L134.719 91.989L134.01 93.6286L134.936 94.8834L133.507 97.2425L130.163 98.9937L129.822 99.7856L131 100.148L130.581 101.124L131.558 102.764L130.805 103.433L129.42 103.639L127.466 101.018L127.125 102.083L124.73 101.537L123.664 99.4064L123.429 99.8079L121.408 98.9993L121.179 95.4188L119.292 93.4669L115.668 94.2756L115.959 94.8332L113.971 95.9765L113.664 97.0529L112.296 96.3669L111.135 97.1589L111.14 94.4931L108.912 94.2923L108.287 92.424L108.94 91.8161L107.505 90.5724L106.534 90.5501L106.713 91.5261L106.015 92.5355L104.859 92.0113L104.116 93.3442L103.106 92.4463L100.481 92.4798L99.5267 93.729L97.2041 94.7384L96.9249 93.3052L96.3386 93.8963L95.3783 93.7179L95.7691 94.5377L94.6971 95.0229L94.2616 94.0023L93.452 94.3536L92.7206 92.82L91.2466 92.9148L90.1634 92.1953L89.0412 93.1713L87.5225 92.5132L83.2624 91.2696L80.9397 93.8852L79.3764 94.164L77.8186 93.1825L75.8868 88.113L77.2659 88.6149L77.2938 88.0014L77.7684 88.5201L79.2703 87.8174L80.9397 88.1855L79.5941 87.2485L80.1804 86.6741L78.7622 87.388L75.9426 84.1756L75.8421 81.5544L74.9153 81.086L76.6182 77.6896L76.1101 77.3605L76.2274 74.3657L77.4557 74.5776L76.1604 73.953L75.7472 75.2915L75.2447 73.9474L74.8985 67.6064L75.9817 67.5004L74.893 67.0431L74.6082 67.9187L72.7434 63.6969L70.3649 62.1354L69.4771 57.473L68.5558 56.3966L69.6502 55.086L69.4659 52.9389L68.8462 51.9462L67.1768 51.3773L67.4783 49.5481Z" fill="#F6D9AD" stroke="#F6D9AD"/>
<path d="M144.244 37.4461L145.896 37.2397L145.98 38.3384L151.999 43.8206L152.513 46.3916L153.713 48.271L152.864 48.2376L151.469 50.6859L151.865 51.1878L152.915 50.6859L151.658 52.4928L152.211 53.2401L151.737 54.6957H151.636L152.848 56.274L152.127 57.4954L152.764 58.0085L153.104 57.2165L153.819 57.4954L153.395 58.7L153.171 58.845L152.049 60.9196L152.647 60.981L152.222 61.416L153.138 62.3864L153.4 65.0299L154.132 65.6378L153.786 66.6472L153.065 65.7159L151.938 65.9891L151.809 67.1547L149.922 72.3023L147.689 72.8711L147.566 72.8767L147.315 72.3079L146.823 73.5404L145.891 73.44L146.594 74.8287L146.404 76.1671L147.532 76.0779L146.913 76.4794L147.119 77.422L145.885 78.0075L146.17 79.8256L143.892 81.1362L144.132 83.0045L143.205 83.7072L140.659 83.8188L138.314 82.7201L138.175 84.2203L136.969 83.8076L135.723 84.962H135.243L132.636 85.3022L132.34 86.2726L131.223 86.8973L130.185 86.914L130.14 86.0105L129.174 85.6034L130.241 84.527L129.872 83.4897L126.455 81.2143L127.08 80.4335L126.472 80.4224L126.595 79.6137L125.992 79.8201L125.785 79.0839L125.093 79.7364L122.826 79.5802L121.223 78.4091L122.703 74.7617L120.838 73.4567L122.05 72.6592L121.609 71.5717L122.362 70.3559L121.251 69.9042L121.469 67.9076L119.755 66.5747L121.218 66.0114V65.2585L120.732 64.8458L119.498 65.331L119.822 64.8682L119.174 64.1822L119.856 63.3289L118.912 60.0385L119.141 59.4083L118.594 59.8321L114.948 58.7112L113.842 57.2946L115.847 52.4649L115.171 51.567L115.903 51.9017L117.103 50.0334L120.112 48.8287L125.902 44.9025L130.213 44.2444L134.551 42.4096L135.919 42.8056L137.432 42.1252L137.666 42.761L137.516 42.0583L140 40.8759L144.244 37.4461Z" fill="#F6D9AD" stroke="#F6D9AD"/>
<path d="M59.9966 143.348L60.9122 143.989L60.5828 145.132L62.3193 146.008L62.4868 147.854L61.13 145.707L59.8961 145.656L58.9972 144.58L58.8408 143.448L59.9966 143.348ZM87.5002 92.5189L89.0189 93.177L90.1411 92.201L91.2243 92.9204L92.6983 92.8256L93.4297 94.3593L94.2393 94.0079L94.6748 95.0285L95.7468 94.5433L95.356 93.7235L96.3163 93.902L96.9026 93.3108L97.1817 94.7441L99.5044 93.7347L100.459 92.4854L103.083 92.452L104.094 93.3499L104.837 92.017L105.992 92.5412L106.69 91.5318L106.512 90.5558L107.483 90.5781L108.918 91.8218L108.265 92.4297L108.89 94.2979L111.118 94.4987L111.112 97.1645L112.274 96.3726L113.641 97.0586L113.949 95.9822L115.936 94.8389L115.646 94.2812L119.269 93.4725L121.157 95.4245L121.386 99.0049L123.407 99.8136L123.641 99.412L124.708 101.542L127.103 102.089L127.444 101.024L129.398 103.645L130.782 103.439L133.518 105.357L132.016 105.547L131.793 106.567L131.145 106.718L131.882 106.88L131.832 107.649L130.687 107.733L130.771 108.887L131.81 109.144L131.263 110.65L131.966 112.234L131.19 112.507L131.095 114.013L130.598 113.204L129.928 113.589L130.112 115.948L128.348 117.626L128.566 118.184L126.829 118.703L125.88 119.868L126.115 120.878L126.651 120.716L126.126 121.441L123.061 122.361L122.72 123.243L121.19 122.406L120.755 123.226L121.648 124.631L121.196 124.921L117.689 123.728L117.717 124.018L116.796 125.981L117.539 126.382L117.433 127.314L115.841 130.749L116.522 131.357L114.088 134.765L113.558 138.758L112.731 138.384L112.117 138.892L111.442 141.39L110.28 140.91L109.281 142.489L108.125 141.942L108.974 140.816L108.013 140.648L107.539 141.128L106.121 140.738L103.089 141.228L102.832 142.059L101.124 142.511L101.626 141.557L100.811 141.49L99.3816 142.149L99.6775 143.219L98.3989 144.424L96.7462 144.212L95.7245 144.865L94.0383 144.139L92.5308 145.344L91.5202 145.188L92.274 145.612L91.9334 146.158L92.6369 146.181L92.3689 146.549L93.5693 147L93.0333 148.222L94.3231 149.739H94.418L95.3392 150.358H95.5011L96.1097 150.754L95.6463 151.183L95.6686 151.323L95.6128 152.577L97.0868 154.435L96.5452 154.903L97.5335 155.673L97.031 156.582L98.0248 157.073L97.7233 158.623L98.2649 160.067L97.2543 160.469L98.1644 162.666L97.4051 164.59L97.8908 164.802L98.2314 164.055L99.7724 165.025L97.2655 167.306L96.0986 167.022L95.5402 167.803L93.0947 166.62L92.9942 166.475L92.5587 167.301L91.71 166.988L90.6715 167.541L89.9848 167.128L90.7162 165.505L87.8464 166.213L87.355 167.301L86.4058 167.323L84.4182 167.379L84.3233 168.885L81.7828 166.743L82.2518 168.176L81.1407 166.47L78.2597 166.464L77.1766 164.406L74.061 163.865L70.2476 161.361L69.2426 157.457L67.1321 154.513L62.6319 150.324L62.403 148.049L63.3633 147.965L63.1568 147.391L65.1556 145.366L65.2673 144L66.4398 143.325L63.6369 140.408L60.2199 139.801L62.0959 138.59L61.9787 135.339L61.0462 135.138L59.0139 136.41L57.2496 134.865L55.9486 135.545L53.3245 134.463L54.162 133.839L54.229 132.829L52.9839 131.602L55.3177 129.924L55.3289 129.093L56.1273 128.106L56.6298 128.814L58.584 128.652L59.0195 126.767L60.2646 127.509L61.6548 126.89L62.1518 127.671L62.2969 126.583L63.6704 126.198L64.0501 122.194L66.5682 120.688L66.9925 121.458L69.1924 120.181L73.8321 120.147L74.7087 118.296L78.1648 116.941L78.0308 115.831L80.1302 116.076L80.7052 117.074L83.4076 117.85L85.5293 111.369L88.7397 110.047L87.3941 103.21L87.2992 103.121L86.7799 100.94L88.0753 98.7651L87.2434 95.7814L87.5002 92.5189Z" fill="#F6D9AD" stroke="#F6D9AD"/>
<path d="M150.028 26.8052L150.358 27.0673L150.899 27.8704L154.137 26.755L156.538 28.5341L157.437 27.8258L157.856 28.1716L157.08 28.9691L157.415 29.3874L160.435 30.6756L160.642 32.5328L161.669 32.2093L162.133 32.9064L164.93 31.5178L166.253 32.0866L166.376 31.1497L166.985 32.3209L168.09 31.3058L169.134 31.4564L170.145 32.7503L167.666 34.2226L167.392 35.8065L168.381 36.604L169.827 34.7692L170.603 34.6743L171.033 35.6503L171.479 34.613L172.066 34.7078L172.021 35.6726L174.986 36.8271L175.069 35.1763L175.589 35.2153L176.772 35.7396L176.002 38.1655L178.565 36.9553L178.71 39.0021L180.016 37.9759L181.194 38.2436L182.199 37.6134L184.053 37.8421L185.868 39.3256L187.867 38.5727L188.308 39.2252L189.502 39.1694L190.295 38.4221L193.243 39.0913L194.472 37.7751L196.096 38.8404L197.152 38.6786L197.252 37.8142L198.43 37.2398L202.082 38.3998L202.439 39.4148L204.633 38.1655L204.594 39.9892L207.068 40.8592L208.363 40.48L210.429 41.2162L210.094 42.8279L210.976 43.1848L210.92 44.462L209.826 47.6241L210.842 48.4439L209.34 50.513L207.972 51.2603L207.715 52.8665L205.996 52.6992L205.588 53.2624L206.85 55.075L206.197 56.0119L206.878 56.7369L206.001 57.3671L206.632 59.5477L205.923 59.8043L205.89 62.576L204.097 61.9681L203.271 60.9308L201.691 61.8733L201.59 63.1281L199.887 62.721L196.817 64.238L197.576 67.0265L197.018 67.8017L197.671 68.3594L198.056 68.008L198.43 69.0732L199.223 68.9226L199.206 69.709L198.196 70.2946L196.275 70.0101L195.778 71.0977L196.644 72.5923L195.454 73.189L195.415 74.0089L196.934 73.7914L197.565 74.8064L195.532 76.7081L195.834 77.3104L195.153 77.4387L195.075 78.3087L194.092 78.3979L193.104 80.4949L192.545 81.008L192.182 80.2105L190.731 79.8033L190.373 77.8235L189.475 78.5318L188.916 77.1041L187.984 77.4499L187.677 76.2675L185.728 74.8677L186.27 73.5348L185.064 71.5606L183.478 71.1757L183.4 72.2967L182.065 72.0736L181.568 72.7986L181.133 72.0736L178.425 72.8265L177.414 71.8952L175.689 73.1556L173.35 71.4825L172.205 72.4919L171.485 70.9192L171.016 71.7892L170.044 71.5606L170.357 71.159L169.347 70.3448L168.744 70.6069L168.883 70.1496L167.376 69.6867L166.974 70.0938L165.957 68.7442L165.304 69.6867L164.087 69.9878L163.752 68.9951L162.641 69.5528L160.564 67.902L158.733 69.1234L155.98 69.5807L154.137 68.7888L153.004 69.1346L152.585 68.4486L152.373 68.4542L152.663 67.4168L151.826 67.1492L151.954 65.9836L153.082 65.7103L153.802 66.6416L154.149 65.6322L153.417 65.0243L153.155 62.3808L152.239 61.4104L152.663 60.9754L152.066 60.9141L153.188 58.8394L153.412 58.6944L153.836 57.4898L153.121 57.211L152.781 58.0029L152.144 57.4898L152.864 56.2684L151.653 54.6902H151.753L152.228 53.2346L151.675 52.4872L152.931 50.6803L151.882 51.1822L151.485 50.6803L152.881 48.232L153.73 48.2655L152.529 46.386L152.016 43.815L145.997 38.3328L145.913 37.2342L144.26 37.4405L145.98 35.8511L147.616 32.3041L148.683 31.9528L149.129 33.0236L150.782 33.4641L151.457 32.9734L147.996 29.8726L148.375 26.7216L150.028 26.8052Z" fill="#F6D9AD" stroke="#F6D9AD"/>
<path d="M79.6835 176.252L81.8163 178.042L83.6141 178.382L83.6532 180.212L84.809 182.504L83.7761 184.5L82.8939 181.807L80.1636 179.386L79.6835 176.252ZM77.2882 169.269L78.1369 170.05L77.0537 170.206L77.5004 171.049L79.5439 170.178L78.9297 170.731L79.2591 171.143L80.6494 170.892L83.3015 172.432L81.9615 173.095L78.4272 171.121L76.7634 171.127L76.1101 169.738L77.2882 169.269ZM86.4282 167.295L87.3773 167.273L87.8687 166.185L90.7385 165.477L90.0071 167.1L90.6938 167.513L91.7323 166.961L92.581 167.273L93.0165 166.447L93.117 166.592L95.5625 167.775L96.1209 166.994L97.2878 167.278L99.7947 164.997L98.2537 164.027L97.9131 164.774L97.4274 164.562L98.1867 162.638L97.2766 160.441L98.2872 160.04L97.7456 158.595L98.0471 157.045L97.0533 156.554L97.5558 155.645L96.5675 154.875L97.1091 154.407L95.6351 152.55L95.6909 151.295L95.6686 151.155L96.132 150.726L95.5234 150.33H95.3615L94.4403 149.711H94.3454L93.0556 148.194L93.5916 146.973L92.3912 146.521L92.6592 146.153L91.9557 146.131L92.2963 145.584L91.5425 145.16L92.5531 145.316L94.0606 144.112L95.7468 144.837L96.7685 144.184L98.4212 144.396L99.6998 143.191L99.4039 142.121L100.833 141.463L101.648 141.53L101.146 142.483L102.854 142.031L103.111 141.2L106.143 140.71L107.561 141.1L108.036 140.62L108.996 140.788L108.147 141.914L109.303 142.461L110.303 140.883L111.464 141.362L112.14 138.864L112.754 138.356L113.58 138.73L114.189 140.252L115.579 140.052L115.456 140.654L116.087 140.866L116.545 140.386L116.969 141.189L116.467 142.294L118.013 141.875L118.549 142.857L119.353 142.567L119.571 144.357L119.08 144.63L119.828 146.655L120.794 146.019L122.491 146.694L124.049 145.701L126.193 145.757L125.489 144.101L126.645 144.056L128.359 145.199L128.655 147.581L130.782 149.387L131.218 151.429L133.479 153.526L133.814 154.63L132.999 156.805L133.418 157.753L135.824 158.896L135.953 159.928L137.644 159.917L138.839 160.898L138.99 162.861L140.408 163.363L140.051 164.429L139.626 164.992L139.146 164.83L138.51 166.236L136.628 165.739L135.634 168.494L133.245 168.215L132.05 170.128L130.704 170.753L131.955 173.251L131.095 173.72L131.67 174.618L131.195 176.14L132.212 177.206L132.815 176.743L133.753 177.484L134.261 178.828L132.753 180.407L131.129 180.106L131.475 181.723L130.459 184.746L128.817 184.327L128.884 185.722L126.924 187.445L125.422 189.971L124.16 189.988L124.01 192.665L122.726 193.58L122.324 194.823L121.14 194.829L119.979 196.268L119.325 195.699L119.666 196.441L118.717 196.758L118.052 198.66L118.488 201.036L116.383 202.229L115.445 204.025L113.614 203.339L112.508 204.142L111.877 205.38L112.413 205.771L111.464 206.189L111.296 207.544L110.28 206.791L108.99 207.84L107.896 207.684L106.322 207.015L105.825 206.105L105.037 206.262L104.485 205.33L103.898 205.219L103.424 206.083L103.011 204.828L102.983 204.683L102.447 201.666L99.2029 201.075L98.6836 199.43L98.4938 200.278L95.7189 200.043L94.7976 196.825L93.3013 194.639L89.8172 192.392L88.5777 190.339L84.3567 187.897L83.7258 188.03L83.9938 188.705L83.6532 188.036L83.6197 184.946L86.0206 184.389L84.9709 182.721L86.4449 182.532L87.3717 180.914L86.7855 179.671L87.2936 179.531L87.1707 178.544L86.3332 177.752L87.9022 177.763L86.7687 174.696L85.8028 174.311L86.1322 173.631L85.0881 173.268L85.6353 172.627L84.3176 173.023L83.5974 172.409L84.4628 170.809L86.551 169.197L86.015 167.78L86.4282 167.295Z" fill="#F6D9AD" stroke="#F6D9AD"/>
<path d="M227.983 229.545L228.212 229.802L229.837 230.789L229.853 230.979L228.748 231.497L227.905 233.684L225.643 233.304L225.28 231.849L226.124 230.326L226.325 229.969L226.503 229.874L226.889 229.785L227.603 229.211L227.698 229.456L227.938 229.484L227.983 229.545ZM236.112 268.138L236.899 266.816L236.213 266.019L236.855 265.595L235.353 263.498L233.482 264.535L229.345 264.658L227.491 261.474L226.336 261.256L225.727 262.121L226.006 261.34L225.448 261.669L224.968 260.537L225.353 261.942L224.208 261.334L224.973 262.227L223.689 262.729L224.756 262.656L224.382 263.035L225.375 263.671L226.269 262.896L224.404 264.575L218.508 263.543L217.95 262.896L218.703 261.58L217.374 260.626L210.351 260.369L210.596 259.115L212.495 258.194L212.266 257.33L212.729 257.949L215.699 256.231L215.94 255.495L214.879 255.127L216.258 252.79L217.525 252.472L219.563 253.164L219.211 251.887L220.479 248.078L219.881 247.381L223.879 244.291L223.873 243.488L224.583 243.454L223.237 240.995L221.707 240.488L221.729 237.086L221.4 236.221L220.607 236.182L220.06 234.409L220.088 232.49L223.287 233.031L223.991 235.797L229.574 233.215L230.702 234.186L231.685 233.154L232.053 232.981L231.713 235.658L233.51 236.327L233.963 235.68L235.096 236.461L236.419 236.227L237.106 236.678L237.061 238.128L238.279 238.24L238.731 239.283L240.735 238.853L242.131 236.963L243.008 237.721L242.812 238.279L243.907 238.413L244.001 237.861L243.086 237.604L244.085 236.812L244.091 234.531H243.175L242.929 233.444L242.265 233.265L242.756 232.384L240.869 232.49L240.255 231.826L239.602 232.25L238.145 231.051L237.882 229.428L239.222 229.618L239.708 229.044L238.932 228.703L238.781 227.041L242.399 227.939L242.734 227.013L243.555 226.941L242.003 225.597L243.181 223.4L243.069 222.106L245.062 222.518L245.531 221.771L246.464 222.05L247.413 220.851L246.681 220.332L247.335 218.609L248.63 219.033L250.216 218.576L250.891 217.89L250.177 217.131L251.757 216.127L252.656 216.763L254.454 215.19L257.083 215.592L258.105 214.878L259.596 215.497L259.652 212.742L258.831 212.268L258.859 210.801L256.089 210.232L257.044 206.819L258.166 207.226L259.077 206.73L259.808 208.464L261.807 209.061L262.633 208.961L262.488 207.723L263.186 207.187L263.912 207.5L264.755 206.713L265.978 207.198L266.96 210.154L268.602 210.338L268.758 213.891L271.366 215.687L272.449 215.893L273.035 215.302L275.045 216.562L274.52 217.678L276.284 221.113L273.644 221.308L273.766 223.177L271.165 226.093L271.689 227.655L273.32 229.283L272.03 229.551L271.907 231.458L274.392 234.113L274.671 235.541L278.853 236.651L280.98 238.597L282.454 238.424L282.789 239.417L284.347 239.517L284.486 238.932L288.841 238.312L289.266 237.437L290.36 237.504L289.953 238.904L291.069 240.421L290.857 241.759L289.869 242.2L289.623 243.945L287.647 244.983L287.446 246.449L286.027 247.197L286.831 250.085L283.95 252.121L282.393 252.327L282.259 253.487L281.845 252.517L281.594 253.192L280.154 253.069L279.383 254.296L278.177 254.218L277.362 256.326L277.904 257.436L277.345 257.759L276.815 256.834L275.43 257.971L274.911 257.464L273.677 257.748L273.08 258.641L273.537 259.182L272.024 261.345L269.663 261.987L268.641 261.535L267.976 263.911L264.693 266.309L267.535 266.487L266.793 267.24L267.161 268.612L266.251 269.025L266.368 269.627L265.765 269.928L264.386 268.941L262.884 270.152L260.288 270.358L259.814 272.193L257.731 271.094L255.71 271.289L254.861 272.856L254.978 274.072L253.588 274.005L254.381 273.52L254.264 272.416L251.874 272.449L251.416 271.574L249.708 271.691L249.596 270.982L248.669 271.685L250.21 272.773L248.898 272.427L248.161 273.448L247.441 273.347L246.62 272.75L246.972 271.284L246.006 271.256L246.134 270.536L244.348 270.386L244.135 269.242L242.639 269.031L242.226 269.873L240.64 268.149L239.792 268.707L236.112 268.138Z" fill="#F6D9AD" stroke="#F6D9AD"/>
<path d="M202.685 168.65L202.484 170.703L204.393 171.093L204.778 172.208L207.408 171.227L209.156 172.058L209.837 171.372L210.256 171.93L210.915 171.601L210.809 172.565L211.4 172.643L213.656 171.656L214.421 167.987L215.649 167.942L216.699 168.929L218.19 168.054L219.345 169.002L219.787 167.814L220.775 167.641L221.489 168.561L220.769 169.219L222.081 170.072L221.696 171.361L222.601 172.108L223.097 171.969L226.833 160.53L227.056 161.121L227.832 160.653L229.513 161.685L232.059 161.015L232.087 160.508L232.974 160.96L233.656 162.555L235.476 162.945L235.118 164.055L236.922 165.087L236.553 165.488L237.536 167.485L238.011 166.236L238.307 167.323L239.194 167.317L239.161 169.03L240.674 168.89L243.086 166.347L243.17 167.033L244.727 167.529L244.995 169.147L248.34 169.018L252.868 163.966L255.308 165.611L253.739 168.349L254.258 169.487L250.914 170.636L250.556 171.305L251.254 171.807L250.394 173.575L252.583 172.794L254.353 173.196L258.222 170.351L258.552 169.32L257.418 169.476L257.122 167.736L256.486 167.457L257.229 165.845L263.409 162.599L267.189 162.677L270.388 163.598L269.244 165.996L271.421 168.483L270.014 171.037L269.852 173.24L272.203 173.675L271.673 176.213L273.041 175.672L275.419 179.341L275.57 180.373L274.464 182.08L272.533 183.117L270.383 183.245L270.076 186.932L272.583 189.374L274.543 189.765L274.012 191.477L274.548 194.21L275.81 194.55L275.687 195.286L276.86 195.37L277.2 196.569L278.886 197.467L277.1 200.043L277.675 202.391L276.162 203.841L274.576 203.568L273.275 205.224L272.058 205.269L272.052 206.306L271.031 206.618L269.149 205.559L265.983 207.182L264.76 206.697L263.917 207.483L263.192 207.171L262.494 207.706L262.639 208.944L261.812 209.044L259.814 208.448L259.082 206.713L258.172 207.21L257.05 206.803L256.095 210.216L258.864 210.784L258.837 212.251L259.657 212.725L259.601 215.48L258.111 214.861L257.089 215.575L254.459 215.174L252.661 216.746L251.762 216.111L250.182 217.114L250.897 217.873L250.221 218.559L248.636 219.016L247.34 218.592L246.687 220.316L247.419 220.834L246.469 222.033L245.537 221.754L245.068 222.502L243.075 222.089L243.186 223.383L242.008 225.58L243.56 226.924L242.74 226.997L242.405 227.923L238.787 227.025L238.937 228.687L239.714 229.027L239.228 229.601L237.888 229.412L238.15 231.035L239.607 232.234L240.261 231.81L240.875 232.473L242.762 232.367L242.271 233.249L242.935 233.427L243.181 234.515H244.096L244.091 236.796L243.091 237.587L244.007 237.844L243.912 238.396L242.818 238.262L243.013 237.705L242.137 236.946L240.741 238.837L238.736 239.266L238.284 238.223L237.067 238.112L237.112 236.662L236.425 236.21L235.102 236.444L233.968 235.663L233.516 236.31L231.718 235.641L232.059 232.964L231.69 233.137L230.708 234.169L229.58 233.198L223.996 235.781L223.293 233.014L220.094 232.473L220.066 234.392L216.727 232.033L215.521 232.206L215.169 233.985L214.186 233.751L214.103 231.944L212.578 232.206L210.976 234.57L208.022 232.261L206.124 232.83L205.945 230.499L206.604 230.047L204.734 227.889L203.907 224.699L202.757 223.935L201.791 219.077L203.232 218.286L203.829 216.389L204.734 216.886L204.6 216.194L205.007 216.618L205.661 216.172L205.811 214.911L208.637 214.884L210.217 211.945L212.277 211.621L211.875 210.11L213.807 209.546L213.042 208.241L213.611 207.265L214.248 207.31V207.014L213.667 206.038L214.801 206.284L215.097 207.148L215.599 206.853L215.37 205.486L216.37 203.451L215.102 201.744L213.985 202.352L213.092 201.744L213.595 200.863L212.685 200.328L213.516 199.72L212.757 198.671L211.311 199.006L210.407 197.985L209.139 197.868L208.363 198.153L208.57 198.783L206.889 199L206.654 199.736L205.488 199.301L205.432 199.999L204.672 198.56L203.801 198.42L202.796 199.798L202.445 197.796L204.164 196.457L204.661 194.489L203.478 191.773L200.926 190.01L199.837 188.042L199.921 186.932L197.794 184.74L198.57 183.998L198.408 182.124L199.318 181.595L197.889 180.133L198.067 178.828L200.072 178.706L201.077 177.847L200.479 176.045L200.853 174.874L200.195 174.099L200.557 172.398L199.614 169.855L202.305 168.695L202.506 168.667L202.685 168.65ZM226.492 229.863L226.313 229.958L226.112 230.315L225.269 231.838L225.632 233.293L227.894 233.672L228.737 231.486L229.842 230.968L229.825 230.778L228.201 229.791L227.921 229.467L227.681 229.44L227.586 229.194L226.872 229.769L226.492 229.863Z" fill="#F6D9AD" stroke="#F6D9AD"/>
</g>
<defs>
<clipPath id="clip0_10_47">
<rect width="334" height="326" fill="white"/>
</clipPath>
</defs>
</svg>
