<svg width="64" height="64" viewBox="0 0 64 64" fill="none" xmlns="http://www.w3.org/2000/svg">
<path d="M55.8508 49.1519C55.8249 50.0721 55.6144 50.9777 55.2318 51.8149C54.8492 52.6522 54.3022 53.4041 53.6235 54.0259C52.9447 54.6477 52.1479 55.1268 51.2804 55.4348C50.4129 55.7427 49.4923 55.8732 48.5734 55.8186C42.8321 55.8506 37.0881 55.8186 31.3468 55.8186C30.9931 55.8186 30.654 55.6781 30.404 55.428C30.1539 55.178 30.0134 54.8389 30.0134 54.4852C30.0134 54.1316 30.1539 53.7925 30.404 53.5424C30.654 53.2924 30.9931 53.1519 31.3468 53.1519C37.2134 53.1519 43.0801 53.2372 48.9468 53.1519C51.8988 53.1092 53.1841 50.8906 53.1841 48.2506V15.0132C53.2043 14.174 52.9677 13.3486 52.5059 12.6476C52.0441 11.9465 51.3791 11.4033 50.6001 11.0906C49.6794 10.8395 48.7214 10.7538 47.7708 10.8372H31.3468C30.9931 10.8372 30.654 10.6968 30.404 10.4467C30.1539 10.1967 30.0134 9.85752 30.0134 9.5039C30.0134 9.15028 30.1539 8.81114 30.404 8.56109C30.654 8.31104 30.9931 8.17056 31.3468 8.17056C37.2801 8.17056 43.2534 7.9439 49.1814 8.17056C50.0889 8.19316 50.9829 8.3961 51.8112 8.76756C52.6395 9.13903 53.3856 9.6716 54.006 10.3342C54.6265 10.9969 55.1089 11.7764 55.4251 12.6273C55.7414 13.4782 55.8852 14.3835 55.8481 15.2906L55.8508 49.1519Z" fill="#DEDEDE"/>
<path d="M42.1174 32.944C42.3424 32.7243 42.4742 32.4263 42.4854 32.112C42.4934 32.0751 42.4987 32.0377 42.5014 32C42.4987 31.9632 42.4934 31.9267 42.4854 31.8907C42.476 31.5752 42.344 31.2758 42.1174 31.056L32.3334 21.2747C32.082 21.0318 31.7452 20.8974 31.3956 20.9004C31.046 20.9035 30.7115 21.0437 30.4643 21.2909C30.2171 21.5381 30.0769 21.8725 30.0739 22.2221C30.0708 22.5717 30.2052 22.9085 30.4481 23.16L37.9574 30.6667H9.31209C8.95847 30.6667 8.61933 30.8071 8.36928 31.0572C8.11924 31.3072 7.97876 31.6464 7.97876 32C7.97876 32.3536 8.11924 32.6928 8.36928 32.9428C8.61933 33.1929 8.95847 33.3333 9.31209 33.3333H37.9574L30.4481 40.84C30.2052 41.0915 30.0708 41.4283 30.0739 41.7779C30.0769 42.1275 30.2171 42.4619 30.4643 42.7091C30.7115 42.9563 31.046 43.0965 31.3956 43.0996C31.7452 43.1026 32.082 42.9682 32.3334 42.7253L42.1174 32.944Z" fill="#DEDEDE"/>
</svg>
