<svg width="36" height="44" viewBox="0 0 36 44" fill="none" xmlns="http://www.w3.org/2000/svg">
<path d="M5.41311 15.5612C10.8897 15.5612 0.654792 31.372 8.14915 36.7396C15.6435 42.1072 33.4809 32.5066 33.2247 37.9503C33.9905 41.2715 11.5258 45.9363 4.03143 40.5687C-3.46293 35.2011 1.30564 15.5612 5.41311 15.5612Z" fill="#023047"/>
<path d="M16.4657 4.98724C16.4657 3.42117 17.7353 2.15162 19.3013 2.15162C20.8674 2.15162 22.137 3.42117 22.137 4.98724V28.3602C22.137 29.9263 20.8674 31.1958 19.3013 31.1958C17.7353 31.1958 16.4657 29.9263 16.4657 28.3602V4.98724Z" fill="#023047"/>
<path d="M35.9999 6.82957C35.9999 10.6014 28.6648 4.55304 19.6164 4.55304C10.568 4.55304 3.23282 10.6014 3.23282 6.82957C3.23282 3.0577 10.568 0 19.6164 0C28.6648 0 35.9999 3.0577 35.9999 6.82957Z" fill="#023047"/>
<path d="M22.5731 5.22582C21.5594 6.18375 22.659 8.72892 21.6681 7.96497C20.5458 7.09971 19.7516 4.81414 20.7653 3.8562C21.779 2.89827 24.6533 4.1781 25.7756 5.04336C26.8979 5.90862 23.5868 4.26789 22.5731 5.22582Z" fill="#023047"/>
<path d="M16.2041 5.24415C17.2178 6.20214 16.1181 8.74726 17.109 7.9833C18.2313 7.11804 19.0256 4.83252 18.0118 3.87453C16.9981 2.91655 14.1239 4.19642 13.0016 5.06169C11.8793 5.92695 15.1903 4.28616 16.2041 5.24415Z" fill="#023047"/>
</svg>
