<svg width="36" height="44" viewBox="0 0 36 44" fill="none" xmlns="http://www.w3.org/2000/svg">
<path d="M5.32229 15.5612C10.7989 15.5612 0.563972 31.372 8.05833 36.7396C15.5527 42.1072 33.39 32.5066 33.1339 37.9503C33.8997 41.2715 11.435 45.9363 3.94061 40.5687C-3.55376 35.2011 1.21482 15.5612 5.32229 15.5612Z" fill="#D6D6D6"/>
<path d="M16.3749 4.98724C16.3749 3.42117 17.6445 2.15162 19.2105 2.15162C20.7766 2.15162 22.0461 3.42117 22.0461 4.98724V28.3602C22.0461 29.9263 20.7766 31.1958 19.2105 31.1958C17.6445 31.1958 16.3749 29.9263 16.3749 28.3602V4.98724Z" fill="#D6D6D6"/>
<path d="M35.9091 6.82957C35.9091 10.6014 28.5739 4.55304 19.5256 4.55304C10.4772 4.55304 3.142 10.6014 3.142 6.82957C3.142 3.0577 10.4772 0 19.5256 0C28.5739 0 35.9091 3.0577 35.9091 6.82957Z" fill="#D6D6D6"/>
<path d="M22.4823 5.22582C21.4686 6.18375 22.5682 8.72892 21.5773 7.96497C20.455 7.09971 19.6608 4.81414 20.6745 3.8562C21.6882 2.89827 24.5625 4.1781 25.6848 5.04336C26.8071 5.90862 23.496 4.26789 22.4823 5.22582Z" fill="#D6D6D6"/>
<path d="M16.1132 5.24415C17.127 6.20214 16.0273 8.74726 17.0182 7.9833C18.1405 7.11804 18.9348 4.83252 17.921 3.87453C16.9072 2.91655 14.033 4.19642 12.9107 5.06169C11.7884 5.92695 15.0995 4.28616 16.1132 5.24415Z" fill="#D6D6D6"/>
</svg>
