<svg width="48" height="54" viewBox="0 0 48 54" fill="none" xmlns="http://www.w3.org/2000/svg">
<path d="M24 28C27.1826 28 30.2348 26.7357 32.4853 24.4853C34.7357 22.2348 36 19.1826 36 16C36 12.8174 34.7357 9.76516 32.4853 7.51472C30.2348 5.26428 27.1826 4 24 4C20.8174 4 17.7652 5.26428 15.5147 7.51472C13.2643 9.76516 12 12.8174 12 16C12 19.1826 13.2643 22.2348 15.5147 24.4853C17.7652 26.7357 20.8174 28 24 28ZM24 32C19.7565 32 15.6869 30.3143 12.6863 27.3137C9.68571 24.3131 8 20.2435 8 16C8 11.7565 9.68571 7.68687 12.6863 4.68629C15.6869 1.68571 19.7565 0 24 0C28.2435 0 32.3131 1.68571 35.3137 4.68629C38.3143 7.68687 40 11.7565 40 16C40 20.2435 38.3143 24.3131 35.3137 27.3137C32.3131 30.3143 28.2435 32 24 32ZM44 52V46C44 44.4087 43.3679 42.8826 42.2426 41.7574C41.1174 40.6321 39.5913 40 38 40H10C8.4087 40 6.88258 40.6321 5.75736 41.7574C4.63214 42.8826 4 44.4087 4 46V52C4 52.5304 3.78929 53.0391 3.41421 53.4142C3.03914 53.7893 2.53043 54 2 54C1.46957 54 0.96086 53.7893 0.585787 53.4142C0.210714 53.0391 0 52.5304 0 52V46C0 43.3478 1.05357 40.8043 2.92893 38.9289C4.8043 37.0536 7.34784 36 10 36H38C40.6522 36 43.1957 37.0536 45.0711 38.9289C46.9464 40.8043 48 43.3478 48 46V52C48 52.5304 47.7893 53.0391 47.4142 53.4142C47.0391 53.7893 46.5304 54 46 54C45.4696 54 44.9609 53.7893 44.5858 53.4142C44.2107 53.0391 44 52.5304 44 52Z" fill="#DEDEDE"/>
</svg>
