<svg width="64" height="64" viewBox="0 0 64 64" fill="none" xmlns="http://www.w3.org/2000/svg">
<path d="M32 4C39.4261 4 46.548 6.94999 51.799 12.201C57.05 17.452 60 24.5739 60 32C60 39.4261 57.05 46.548 51.799 51.799C46.548 57.05 39.4261 60 32 60C24.5739 60 17.452 57.05 12.201 51.799C6.94999 46.548 4 39.4261 4 32C4 24.5739 6.94999 17.452 12.201 12.201C17.452 6.94999 24.5739 4 32 4ZM32 56C38.3652 56 44.4697 53.4714 48.9706 48.9706C53.4714 44.4697 56 38.3652 56 32C56 25.6348 53.4714 19.5303 48.9706 15.0294C44.4697 10.5286 38.3652 8 32 8C25.6348 8 19.5303 10.5286 15.0294 15.0294C10.5286 19.5303 8 25.6348 8 32C8 38.3652 10.5286 44.4697 15.0294 48.9706C19.5303 53.4714 25.6348 56 32 56ZM35 45C35 45.7956 34.6839 46.5587 34.1213 47.1213C33.5587 47.6839 32.7956 48 32 48C31.2044 48 30.4413 47.6839 29.8787 47.1213C29.3161 46.5587 29 45.7956 29 45C29 44.2044 29.3161 43.4413 29.8787 42.8787C30.4413 42.3161 31.2044 42 32 42C32.7956 42 33.5587 42.3161 34.1213 42.8787C34.6839 43.4413 35 44.2044 35 45ZM32 16C32.5304 16 33.0391 16.2107 33.4142 16.5858C33.7893 16.9609 34 17.4696 34 18V36C34 36.5304 33.7893 37.0391 33.4142 37.4142C33.0391 37.7893 32.5304 38 32 38C31.4696 38 30.9609 37.7893 30.5858 37.4142C30.2107 37.0391 30 36.5304 30 36V18C30 17.4696 30.2107 16.9609 30.5858 16.5858C30.9609 16.2107 31.4696 16 32 16Z" fill="#FFB703"/>
</svg>
